<svg width="139" height="43" viewBox="0 0 139 43" fill="none" xmlns="http://www.w3.org/2000/svg">
<path d="M41.1426 27.1855C41.1426 21.1797 44.7168 17.1953 50.1367 17.1953C54.9414 17.1953 58.4277 19.8613 58.75 24.2266H54.3848C54.1504 22.293 52.6855 21.0625 50.2832 21.0625C47.2949 21.0625 45.5371 23.3184 45.5371 27.1855C45.5371 31.1113 47.207 33.3379 50.0488 33.3379C52.4219 33.3379 54.0039 31.873 54.209 29.5293H49.6094V26.043H58.75V37H55.498L55.3223 34.2461C54.0625 36.0918 52.041 37.2344 49.6387 37.2344C44.541 37.2344 41.1426 33.2207 41.1426 27.1855ZM62.002 38.4648H63.9062C65.1074 38.4648 65.7812 38.084 66.1621 37.1172L66.4551 36.3848L61.0352 22H65.5469L68.9746 32.4004L72.3145 22H76.8555L71.4062 37.4688C70.2051 40.9844 68.5352 42.2148 64.873 42.2148H62.002V38.4648ZM88.6035 28.5039C88.6035 26.3359 87.6074 25.3984 86.0254 25.3984C84.5312 25.3984 83.418 26.5996 83.418 28.2988V37H79.1113V22H83.418V24.1387C84.4727 22.4395 86.1426 21.502 87.7246 21.502C89.9512 21.502 91.709 22.7031 92.5 24.9004C93.4668 22.7324 95.4004 21.502 97.2168 21.502C100.205 21.502 102.402 23.6699 102.402 27.5957V37H98.125V28.5039C98.125 26.3359 97.0996 25.3984 95.5176 25.3984C94.0234 25.3984 92.9102 26.5996 92.9102 28.2988V37H88.6035V28.5039ZM104.922 29.4414C104.922 24.666 107.969 21.502 112.568 21.502C117.109 21.502 120.186 24.666 120.186 29.4414C120.186 34.2461 117.109 37.4395 112.568 37.4395C107.969 37.4395 104.922 34.2461 104.922 29.4414ZM115.791 29.4414C115.791 26.7461 114.59 25.1934 112.568 25.1934C110.518 25.1934 109.287 26.7461 109.287 29.4414C109.287 32.166 110.518 33.748 112.568 33.748C114.59 33.748 115.791 32.166 115.791 29.4414ZM132.812 28.5039C132.812 26.3359 131.67 25.3984 129.912 25.3984C128.271 25.3984 127.041 26.5996 127.041 28.2988V37H122.705V22H127.041V24.2266C128.125 22.498 129.941 21.502 131.641 21.502C134.834 21.502 137.119 23.6699 137.119 27.5957V37H132.812V28.5039Z" fill="#121212"/>
<path fill-rule="evenodd" clip-rule="evenodd" d="M30.011 11.7494C29.6537 11.7494 29.3857 11.4808 29.3857 11.1451V7.65354C29.3857 7.31782 29.6537 7.02686 30.011 7.02686C30.3459 7.02686 30.6139 7.31782 30.6139 7.65354V11.1451C30.6139 11.4808 30.3459 11.7494 30.011 11.7494Z" fill="#121212"/>
<path fill-rule="evenodd" clip-rule="evenodd" d="M33.7862 11.7491C33.6299 11.7491 33.4736 11.7043 33.362 11.57C33.1163 11.3462 33.1163 10.9433 33.362 10.6972L35.8182 8.23518C36.0638 7.98899 36.4434 7.98899 36.689 8.23518C36.9347 8.48138 36.9347 8.86187 36.689 9.10806L34.2328 11.57C34.1212 11.7043 33.9425 11.7491 33.7862 11.7491Z" fill="#121212"/>
<path fill-rule="evenodd" clip-rule="evenodd" d="M26.216 11.7493C26.0597 11.7493 25.9033 11.7046 25.7694 11.5703L23.3131 9.10831C23.0675 8.86211 23.0675 8.48163 23.3131 8.23543C23.5587 7.98923 23.9384 7.98923 24.184 8.23543L26.6402 10.6974C26.8858 10.9436 26.8858 11.3465 26.6402 11.5703C26.5286 11.7046 26.3723 11.7493 26.216 11.7493Z" fill="#121212"/>
<path fill-rule="evenodd" clip-rule="evenodd" d="M5.63777 6.51427C5.31599 6.71419 5.08251 7.02924 4.98488 7.39528L0.135043 25.5788C-0.132911 26.6306 -0.0435927 28.6894 0.782599 29.5174C3.93106 32.628 8.196 34.5974 12.4163 35.7387C13.5327 36.0296 14.6939 36.1415 15.855 36.1191C17.954 36.0967 20.0976 35.6939 22.1073 35.1121C23.0272 34.8548 24.0087 34.5358 24.8945 34.1553C24.9716 34.1222 25.0511 34.0894 25.135 34.0904C25.1508 34.0905 25.1667 34.0915 25.1825 34.0934C25.264 34.103 25.3333 34.1523 25.4014 34.1982C25.6238 34.348 25.8752 34.4811 26.1266 34.5974C26.8188 34.9554 27.5557 35.2911 28.2926 35.582C30.5925 36.4772 33.0711 37.0142 35.5496 37.059V37.059C35.6567 37.0724 35.7605 37.0168 35.8087 36.9203L35.8176 36.9023C36.9787 34.8659 37.6486 32.3147 37.9389 29.9874C38.2515 27.4138 38.2069 24.2584 37.2913 21.7968C36.1972 18.9099 33.6516 16.9182 30.5478 16.7168C27.377 16.493 24.6305 18.2386 23.0228 20.924L23.0187 20.9308C22.9423 21.0584 22.9624 21.2216 23.0674 21.3268V21.3268C24.0499 22.2444 24.8092 23.3857 25.3674 24.5941C25.4156 24.6907 25.406 24.8219 25.3387 24.913C25.2853 24.9853 25.1893 25.0193 25.0994 25.0193V25.0193C24.9878 25.0193 24.8761 24.9522 24.8092 24.8403C23.4471 21.9311 20.8792 19.6484 17.5521 19.5589C14.3366 19.4694 11.6571 21.4835 10.161 24.2584C10.094 24.4151 9.91537 24.4598 9.75906 24.3927C9.60276 24.3032 9.53577 24.1242 9.62509 23.9675C10.2057 22.9157 10.9425 21.9311 11.8357 21.1254V21.1254C11.9072 21.0538 11.9474 20.9567 11.9474 20.8555V12.0294C11.9474 11.758 11.8732 11.4917 11.7328 11.2594L10.4736 9.17524C10.4558 9.13964 10.4452 9.10405 10.4401 9.06845C10.4249 8.96107 10.4691 8.8481 10.5566 8.78407C10.5931 8.75738 10.6338 8.73787 10.6746 8.72766L13.6221 7.98917C13.7337 7.96679 13.8454 7.98917 13.9124 8.0563L14.9446 9.05975C15.5837 9.68106 16.6218 9.60539 17.1641 8.89798L19.4321 5.93929C19.8491 5.39527 19.8408 4.63684 19.412 4.10206L16.9489 1.03006C16.4776 0.442257 15.6415 0.29915 15.0015 0.696747L5.63777 6.51427ZM29.8333 26.9886C29.6993 26.9215 29.6323 26.7201 29.7216 26.5858C29.811 26.4292 29.9896 26.3844 30.1459 26.4739C31.9769 27.5257 33.9196 28.3537 35.9516 28.9803C36.1079 29.0251 36.1972 29.1817 36.1525 29.3608C36.1079 29.495 35.9962 29.5622 35.8623 29.5622V29.5622C35.803 29.5622 35.744 29.5541 35.687 29.5379C33.6415 28.955 31.6831 28.048 29.8333 26.9886ZM7.36981 28.5775C10.2636 30.26 13.5507 31.5045 16.8853 31.9644C16.9575 31.9743 17.0315 31.985 17.0942 32.0222C17.2024 32.0864 17.2791 32.1983 17.2618 32.3371C17.2394 32.4938 17.1055 32.6057 16.9492 32.6057H16.9268C13.4658 32.1581 10.0717 30.8377 7.05719 29.0922C6.90089 29.0251 6.85623 28.8237 6.94554 28.6894C7.03486 28.5327 7.2135 28.488 7.36981 28.5775Z" fill="#121212"/>
</svg>
