<svg width="60" height="60" viewBox="0 0 60 60" fill="none" xmlns="http://www.w3.org/2000/svg">
<path fill-rule="evenodd" clip-rule="evenodd" d="M43.5624 29.6007C42.4922 29.2529 41.564 28.3248 39.7077 26.4684L37.7323 24.493L37.7317 24.4936L24.474 37.7513L26.4494 39.7267C28.3057 41.583 29.2339 42.5112 29.5817 43.5815C29.8876 44.5229 29.8876 45.5371 29.5817 46.4785C29.2339 47.5488 28.3057 48.477 26.4494 50.3333C24.5931 52.1896 23.6649 53.1178 22.5946 53.4656C21.6532 53.7715 20.639 53.7715 19.6976 53.4656C18.6273 53.1178 17.6991 52.1896 15.8428 50.3333L13.8674 48.3579L13.8668 48.3585L12.5393 49.686C11.9291 50.2962 10.9398 50.2962 10.3296 49.686C9.71938 49.0758 9.71938 48.0865 10.3296 47.4763L11.6571 46.1488L11.6577 46.1482L9.65562 44.1461C7.79929 42.2898 6.87113 41.3616 6.52337 40.2913C6.21747 39.3499 6.21747 38.3358 6.52337 37.3943C6.87113 36.324 7.79929 35.3958 9.65562 33.5395L9.65563 33.5395C11.512 31.6832 12.4401 30.755 13.5104 30.4073C14.4519 30.1014 15.466 30.1014 16.4074 30.4073C17.4777 30.755 18.4059 31.6832 20.2622 33.5395L20.2622 33.5395L22.2643 35.5416L35.522 22.2839L35.5225 22.2833L33.5205 20.2813C31.6641 18.4249 30.736 17.4968 30.3882 16.4265C30.0823 15.485 30.0823 14.4709 30.3882 13.5294C30.736 12.4592 31.6641 11.531 33.5205 9.67466C35.3768 7.81833 36.305 6.89017 37.3753 6.54241C38.3167 6.23651 39.3308 6.23651 40.2723 6.54241C41.3426 6.89017 42.2707 7.81833 44.1271 9.67466L46.1291 11.6767L47.4527 10.3532C48.0629 9.743 49.0522 9.743 49.6624 10.3532C50.2726 10.9634 50.2726 11.9527 49.6624 12.5629L48.3389 13.8864L50.3143 15.8618C52.1706 17.7182 53.0988 18.6463 53.4465 19.7166C53.7524 20.6581 53.7524 21.6722 53.4465 22.6137C53.0988 23.684 52.1706 24.6121 50.3143 26.4684C48.4579 28.3248 47.5298 29.2529 46.4595 29.6007C45.518 29.9066 44.5039 29.9066 43.5624 29.6007Z" fill="#121212"/>
</svg>
