<svg width="513" height="513" viewBox="0 0 513 513" fill="none" xmlns="http://www.w3.org/2000/svg">
<g clip-path="url(#clip0_1509_102)">
<path d="M304.105 94.3885C305.804 95.9765 307.421 97.6495 308.951 99.4065C311.787 102.666 314.31 106.18 316.549 109.923C318.647 113.466 317.455 118.058 313.912 120.185C310.342 122.283 305.748 121.091 303.65 117.548C301.668 114.175 299.37 111 296.706 108.137C294.919 110.32 292.851 112.332 290.61 114.175C281.852 121.29 269.833 125.684 256.68 125.684C243.527 125.684 231.536 121.29 222.777 114.175C220.509 112.332 218.468 110.32 216.682 108.137C211.58 113.665 207.583 120.44 204.635 128.121C200.638 138.469 198.512 150.544 198.115 163.555C205.797 170.387 214.555 175.886 224.08 179.77C234.2 183.88 245.199 186.12 256.679 186.12C268.187 186.12 279.185 183.881 289.306 179.77C298.829 175.886 307.59 170.387 315.272 163.555C315.215 161.43 315.102 159.332 314.932 157.32C314.676 153.691 314.25 150.205 313.713 146.917C313.061 142.835 315.811 139.009 319.893 138.328C323.975 137.676 327.828 140.454 328.481 144.507C329.133 148.391 329.586 152.303 329.899 156.188L329.956 157.093C340.87 156.952 352.974 156.697 366.891 156.188C383.587 155.563 403.119 154.6 426.703 153.126C436.342 152.502 444.533 153.946 451.053 156.923C458.252 160.212 463.44 165.371 466.416 171.807C469.336 178.042 470.045 185.355 468.457 193.264C466.728 201.825 462.193 211.093 454.709 220.279C447 229.718 439.912 238.761 433.365 247.436H459.103C468.06 247.436 476.225 243.778 482.149 237.854C488.075 231.929 491.758 223.767 491.758 214.809V47.9845C491.758 38.9985 488.074 30.8625 482.149 24.9385C476.225 19.0135 468.06 15.3295 459.103 15.3295H54.2836C45.2976 15.3295 37.1626 19.0145 31.2376 24.9385C25.3136 30.8625 21.6276 38.9985 21.6276 47.9845V114.4C21.6276 118.539 18.2826 121.912 14.1446 121.912C10.0066 121.912 6.63257 118.539 6.63257 114.4V47.9845C6.63257 34.8595 11.9896 22.9545 20.6356 14.3365C29.2526 5.6905 41.1586 0.333496 54.2836 0.333496H459.104C472.23 0.333496 484.134 5.6905 492.751 14.3375C501.398 22.9545 506.755 34.8605 506.755 47.9855V214.807C506.755 227.904 501.398 239.807 492.751 248.453C485.806 255.397 476.735 260.246 466.615 261.862V362.918C466.615 367.057 463.242 370.4 459.103 370.4C454.964 370.4 451.619 367.056 451.619 362.918V262.428H422.394C361.534 348.035 355.78 402.008 346.821 497.339H451.619V396.878C451.619 392.739 454.965 389.395 459.103 389.395C463.242 389.395 466.615 392.74 466.615 396.878V504.85C466.615 508.989 463.242 512.333 459.103 512.333H54.2836C50.1446 512.333 46.7716 508.988 46.7716 504.85V261.862C36.6516 260.246 27.5806 255.397 20.6356 248.453C11.9896 239.836 6.63257 227.903 6.63257 214.807V148.389C6.63257 144.222 10.0056 140.878 14.1446 140.878C18.2836 140.878 21.6276 144.222 21.6276 148.389V214.807C21.6276 223.765 25.3136 231.927 31.2376 237.852C37.1626 243.776 45.2976 247.434 54.2836 247.434H80.0226C73.4746 238.759 66.3886 229.716 58.6776 220.277C51.1946 211.091 46.6586 201.823 44.9296 193.262C43.3426 185.353 44.0506 178.039 46.9706 171.804C49.9476 165.368 55.1346 160.21 62.3346 156.921C68.8546 153.944 77.0466 152.499 86.6846 153.123C110.27 154.597 129.8 155.562 146.497 156.156C160.415 156.667 172.519 156.95 183.433 157.091C184.312 144.733 186.693 133.111 190.69 122.735C194.971 111.594 201.122 101.958 209.285 94.3885C208.378 91.2705 207.896 88.0105 207.896 84.6375C207.896 73.0155 213.594 62.5835 222.778 55.1285C231.537 48.0145 243.528 43.5915 256.681 43.5915C269.834 43.5915 281.853 48.0145 290.611 55.1285C299.797 62.5835 305.466 73.0155 305.466 84.6375C305.464 88.0105 305.011 91.2705 304.105 94.3885ZM253.193 438.234C261.527 438.234 269.18 440.53 274.85 444.271C281.426 448.609 285.479 454.903 285.479 462.102C285.479 469.304 281.426 475.596 274.85 479.932C269.18 483.674 261.527 485.999 253.193 485.999C244.859 485.999 237.177 483.674 231.507 479.932C224.959 475.596 220.877 469.304 220.877 462.102C220.877 454.903 224.959 448.609 231.507 444.271C237.177 440.53 244.859 438.234 253.193 438.234ZM266.601 456.773C263.284 454.562 258.551 453.229 253.193 453.229C247.807 453.229 243.101 454.562 239.785 456.773C237.376 458.36 235.873 460.26 235.873 462.102C235.873 463.946 237.375 465.872 239.785 467.458C243.101 469.642 247.807 471.004 253.193 471.004C258.551 471.004 263.283 469.643 266.601 467.458C269.01 465.871 270.485 463.945 270.485 462.102C270.485 460.261 269.01 458.36 266.601 456.773ZM240.125 301.293C249.621 301.293 258.323 304.126 264.758 308.69C271.902 313.764 276.323 320.993 276.323 329.185C276.323 337.377 271.901 344.633 264.758 349.707C258.323 354.271 249.621 357.077 240.125 357.077C230.628 357.077 221.898 354.27 215.491 349.707C208.348 344.633 203.925 337.377 203.925 329.185C203.925 320.993 208.347 313.764 215.491 308.69C221.898 304.126 230.629 301.293 240.125 301.293ZM256.084 320.879C252.116 318.044 246.475 316.315 240.125 316.315C233.775 316.315 228.134 318.044 224.166 320.879C220.934 323.175 218.922 326.123 218.922 329.185C218.922 332.246 220.934 335.224 224.166 337.52C228.134 340.327 233.775 342.083 240.125 342.083C246.475 342.083 252.116 340.327 256.084 337.52C259.316 335.224 261.328 332.247 261.328 329.185C261.329 326.123 259.316 323.175 256.084 320.879ZM278.705 361.018C291.914 361.018 303.962 364.363 312.835 369.806C322.784 375.928 328.935 384.717 328.935 394.724C328.935 404.759 322.785 413.545 312.835 419.668C303.962 425.082 291.914 428.456 278.705 428.456C265.523 428.456 253.476 425.082 244.603 419.668C234.653 413.545 228.502 404.759 228.502 394.724C228.502 384.717 234.653 375.928 244.603 369.806C253.476 364.362 265.524 361.018 278.705 361.018ZM305.04 382.59C298.406 378.537 289.137 376.013 278.705 376.013C268.301 376.013 259.004 378.537 252.399 382.59C246.9 385.964 243.498 390.273 243.498 394.724C243.498 399.174 246.9 403.51 252.399 406.883C259.004 410.937 268.301 413.46 278.705 413.46C289.137 413.46 298.406 410.936 305.04 406.883C310.538 403.51 313.94 399.174 313.94 394.724C313.941 390.273 310.538 385.964 305.04 382.59ZM281.17 66.7225C274.99 61.7055 266.346 58.5865 256.679 58.5865C247.041 58.5865 238.396 61.7055 232.216 66.7225C226.462 71.3995 222.918 77.7485 222.918 84.6375C222.918 91.5535 226.462 97.8755 232.216 102.552C238.396 107.569 247.042 110.688 256.679 110.688C266.345 110.688 274.99 107.57 281.17 102.552C286.926 97.8755 290.469 91.5535 290.469 84.6375C290.469 77.7485 286.926 71.3985 281.17 66.7225ZM313.798 183.595C307.874 187.592 301.552 190.966 294.918 193.658C283.041 198.477 270.145 201.113 256.679 201.113C243.243 201.113 230.345 198.477 218.468 193.658C211.835 190.966 205.514 187.592 199.589 183.595C202.254 196.635 208.263 209.023 216.484 219.426C225.186 230.453 241.401 244.626 256.68 244.626C271.987 244.626 288.173 230.453 296.903 219.426C305.124 209.022 311.134 196.635 313.798 183.595ZM183.091 172.031C171.979 171.888 159.79 171.604 145.957 171.094C128.665 170.47 108.936 169.506 85.7476 168.061C78.6326 167.608 72.8786 168.543 68.5416 170.527C64.7146 172.256 62.0496 174.864 60.5476 178.067C58.9886 181.44 58.6196 185.635 59.5836 190.341C60.8306 196.549 64.3456 203.578 70.2706 210.863C92.6646 238.275 114.379 267.416 131.755 298.285C146.552 324.592 156.303 348.855 163.164 373.801C164.241 377.77 161.888 381.88 157.92 382.957C153.951 384.035 149.84 381.71 148.735 377.714C142.244 354.044 132.918 330.885 118.688 305.6C111.006 291.964 101.878 277.706 91.0206 262.427H61.7666V497.337H166.565C163.475 464.312 160.754 436.221 156.048 410.228C155.311 406.146 158.032 402.263 162.086 401.555C166.139 400.817 170.022 403.509 170.76 407.591C175.636 434.548 178.385 463.377 181.56 497.337H331.798C337.864 432.819 342.372 386.728 362.327 337.857C381.149 291.708 411.594 249.444 443.088 210.863C449.041 203.578 452.555 196.549 453.803 190.341C454.766 185.635 454.399 181.44 452.838 178.067C451.336 174.864 448.643 172.256 444.846 170.527C440.508 168.543 434.754 167.608 427.639 168.061C404.451 169.506 384.75 170.47 367.431 171.122C353.597 171.632 341.408 171.887 330.269 172.029C329.984 179.455 328.738 186.657 326.781 193.516L396.005 197.938C400.116 198.192 403.263 201.765 403.007 205.876C402.894 207.633 402.185 209.22 401.107 210.41C383.589 231.869 330.467 291.935 299.966 293.126C284.12 293.749 276.439 284.906 273.121 273.284C271.647 268.125 271.165 262.426 271.221 256.956C266.204 258.714 261.3 259.62 256.68 259.62C252.088 259.62 247.156 258.714 242.167 256.956C242.224 262.427 241.742 268.125 240.268 273.284C236.923 284.906 229.241 293.749 213.423 293.126C182.78 291.907 129.488 231.474 112.055 210.128C109.447 206.925 109.929 202.218 113.132 199.61C114.351 198.618 115.825 198.05 117.384 197.938L186.607 193.516C184.622 186.658 183.403 179.457 183.091 172.031ZM321.283 208.173C317.797 215.657 313.459 222.544 308.611 228.695C302.744 236.122 296.053 242.471 289.108 247.432H346.681C359.804 234.931 372.163 221.24 380.243 211.941L321.283 208.173ZM224.279 247.434C217.306 242.473 210.644 236.123 204.777 228.697C199.901 222.546 195.593 215.657 192.078 208.173L133.145 211.943C141.224 221.242 153.555 234.933 166.707 247.434L224.279 247.434ZM286.358 262.428C286.557 264.809 286.926 267.076 287.52 269.203C289.051 274.446 292.454 278.473 299.397 278.189C307.505 277.877 318.306 271.441 329.617 262.427H286.358V262.428ZM183.771 262.428C195.082 271.442 205.882 277.877 213.989 278.189C220.933 278.472 224.335 274.447 225.838 269.204C226.462 267.077 226.83 264.81 227.028 262.43H183.771V262.428Z" fill="#080808"/>
</g>
<defs>
<clipPath id="clip0_1509_102">
<rect width="512" height="512" fill="white" transform="translate(0.693604 0.333496)"/>
</clipPath>
</defs>
</svg>
