<svg width="481" height="136" viewBox="0 0 481 136" fill="none" xmlns="http://www.w3.org/2000/svg">
<path fill-rule="evenodd" clip-rule="evenodd" d="M51.125 111.518C50.6055 111.621 50.0668 111.655 49.521 111.613C32.6541 110.333 16.6893 101.017 7.59333 85.262C-1.50281 69.507 -1.58873 51.0225 5.73675 35.7753C6.80027 33.5617 9.10575 32.2307 11.5545 32.4165C17.84 32.8934 24.0003 34.4864 29.7264 37.1127C34.0472 28.6879 40.4398 21.5008 48.2316 16.224C50.265 14.847 52.9246 14.847 54.958 16.224C62.644 21.4291 68.9685 28.493 73.286 36.7702C78.795 34.3476 84.688 32.8723 90.6954 32.4165C93.1442 32.2307 95.4497 33.5617 96.5132 35.7753C103.839 51.0225 103.753 69.507 94.6566 85.262C85.5606 101.017 69.5959 110.333 52.729 111.613C52.1831 111.655 51.6444 111.621 51.125 111.518ZM63.4829 101.968C73.593 98.5292 82.5356 91.5513 88.2891 81.5857C95.9476 68.3208 96.197 52.8094 90.2933 39.8308C85.4455 40.3011 80.7007 41.541 76.2489 43.4986C78.4207 49.4717 79.6052 55.9188 79.6052 62.6426C79.6052 77.9665 73.4526 91.8534 63.4829 101.968ZM66.7766 40.1892C63.1696 33.2645 57.944 27.3139 51.5948 22.8368C45.1096 27.4098 39.7967 33.52 36.1835 40.6354C41.9343 44.313 47.0431 49.1507 51.125 55.0453C55.3741 48.9092 60.7361 43.9183 66.7766 40.1892ZM55.2908 62.1766C58.9851 55.8746 63.9612 50.7824 69.6995 47.0417C71.3555 51.9396 72.2527 57.1865 72.2527 62.6426C72.2527 75.2388 67.4711 86.7195 59.6096 95.3675C61.7366 84.4433 60.4501 72.8084 55.2908 62.1766ZM46.9592 62.1765C43.431 56.158 38.7337 51.2428 33.3199 47.5545C31.7727 52.3052 30.9369 57.3764 30.9369 62.6426C30.9369 74.5928 35.2407 85.539 42.3951 94.0149C40.6258 83.4871 42.0122 72.3707 46.9592 62.1765ZM51.125 98.961C53.8851 90.1836 53.9986 80.6084 51.125 71.531C48.2514 80.6084 48.3649 90.1836 51.125 98.961ZM13.9608 81.5857C19.9758 92.0039 29.4759 99.157 40.1519 102.414C29.9205 92.2641 23.5844 78.1933 23.5844 62.6426C23.5844 56.0555 24.7212 49.734 26.8095 43.8635C22.1257 41.6946 17.0991 40.3297 11.9566 39.8308C6.05294 52.8094 6.30231 68.3208 13.9608 81.5857Z" fill="black"/>
<path d="M131.627 103.299V32.9995H151.627C162.727 32.9995 171.027 40.4995 171.027 50.5995C171.027 58.4995 165.727 64.7995 157.727 67.1995C168.527 68.4995 175.727 75.4995 175.727 84.8995C175.727 95.3995 167.627 103.299 156.727 103.299H131.627ZM146.227 34.2995H142.827V66.9995H146.627C154.027 66.9995 159.627 60.9995 159.627 50.5995C159.627 40.1995 153.827 34.2995 146.227 34.2995ZM164.227 85.0995C164.227 74.5995 157.927 68.1995 150.827 68.1995H142.827V101.999H150.627C157.927 101.999 164.227 95.6995 164.227 85.0995ZM195.642 103.299H184.842V25.0995H195.642V103.299ZM232.122 104.299C216.422 104.299 204.522 93.0995 204.522 77.1995C204.522 61.3995 216.422 50.1995 232.122 50.1995C247.822 50.1995 259.722 61.3995 259.722 77.1995C259.722 93.0995 247.822 104.299 232.122 104.299ZM232.122 102.999C241.622 102.999 248.622 93.6995 248.622 77.1995C248.622 61.9995 242.122 51.4995 232.122 51.4995C222.522 51.4995 215.622 60.7995 215.622 77.1995C215.622 92.4995 222.022 102.999 232.122 102.999ZM265.943 89.4995H276.843C276.743 90.4995 276.743 91.8995 276.743 93.0995C276.743 98.6995 278.943 102.999 283.843 102.999C287.143 102.999 290.543 100.699 290.543 94.1995C290.543 86.4995 284.343 83.5995 278.643 80.2995C273.143 77.1995 266.643 72.7995 266.743 64.3995C266.743 55.4995 272.843 50.1995 282.843 50.1995C292.143 50.1995 299.243 56.5995 299.143 64.4995H288.343C288.443 63.4995 288.543 62.3995 288.543 61.0995C288.543 55.9995 287.243 51.4995 282.343 51.4995C278.343 51.4995 276.543 55.0995 276.443 59.9995C276.443 67.2995 282.043 70.0995 287.643 73.0995C294.243 76.4995 300.343 80.8995 300.243 89.4995C300.243 98.5995 293.743 104.299 283.143 104.299C273.443 104.299 265.843 97.6995 265.943 89.4995ZM306.763 89.4995H317.663C317.563 90.4995 317.563 91.8995 317.563 93.0995C317.563 98.6995 319.763 102.999 324.663 102.999C327.963 102.999 331.363 100.699 331.363 94.1995C331.363 86.4995 325.163 83.5995 319.463 80.2995C313.963 77.1995 307.463 72.7995 307.563 64.3995C307.563 55.4995 313.663 50.1995 323.663 50.1995C332.963 50.1995 340.063 56.5995 339.963 64.4995H329.163C329.263 63.4995 329.363 62.3995 329.363 61.0995C329.363 55.9995 328.063 51.4995 323.163 51.4995C319.163 51.4995 317.363 55.0995 317.263 59.9995C317.263 67.2995 322.863 70.0995 328.463 73.0995C335.063 76.4995 341.163 80.8995 341.063 89.4995C341.063 98.5995 334.563 104.299 323.963 104.299C314.263 104.299 306.663 97.6995 306.763 89.4995ZM374.505 104.299C358.805 104.299 346.905 93.0995 346.905 77.1995C346.905 61.3995 358.805 50.1995 374.505 50.1995C390.205 50.1995 402.105 61.3995 402.105 77.1995C402.105 93.0995 390.205 104.299 374.505 104.299ZM374.505 102.999C384.005 102.999 391.005 93.6995 391.005 77.1995C391.005 61.9995 384.505 51.4995 374.505 51.4995C364.905 51.4995 358.005 60.7995 358.005 77.1995C358.005 92.4995 364.405 102.999 374.505 102.999ZM437.817 103.299V64.2995C437.817 58.5995 434.617 54.5995 429.917 54.5995C425.117 54.5995 421.817 58.5995 421.817 64.2995V103.299H411.017V51.1995H421.817V58.3995C423.917 53.3995 428.517 50.1995 434.417 50.1995C441.117 50.1995 446.117 53.9995 447.917 59.8995C449.717 54.2995 454.817 50.1995 461.317 50.1995C469.817 50.1995 475.717 56.1995 475.717 64.9995V103.299H464.917V64.4995C464.917 58.5995 461.717 54.5995 456.917 54.5995C451.917 54.5995 448.617 58.5995 448.617 64.6995V103.299H437.817Z" fill="black"/>
</svg>
