<svg width="252" height="139" viewBox="0 0 252 139" fill="none" xmlns="http://www.w3.org/2000/svg">
<path d="M38.5537 93.3454C39.7907 95.1032 41.3857 96.4704 43.3389 97.447C45.292 98.391 47.4242 98.863 49.7354 98.863C52.5674 98.863 55.2367 98.1794 57.7432 96.8122C60.2497 95.445 62.4307 93.5896 64.2861 91.2458C66.1742 88.9021 67.6715 86.184 68.7783 83.0915C69.8851 79.9991 70.4385 76.7113 70.4385 73.2282C70.4385 68.9314 69.5433 65.4971 67.7529 62.9255C65.9951 60.3539 63.391 58.6124 59.9404 57.7009C59.8428 57.7334 59.6149 57.7497 59.2568 57.7497C58.8662 57.7497 58.5407 57.7009 58.2803 57.6032C58.0524 57.473 57.9385 57.3103 57.9385 57.115C57.9385 56.9522 58.0687 56.8057 58.3291 56.6755C58.5895 56.5127 58.9313 56.4314 59.3545 56.4314C59.8102 56.4314 60.2497 56.5616 60.6729 56.822C63.3096 56.2361 65.751 55.2269 67.9971 53.7946C70.2757 52.3298 72.2451 50.5883 73.9053 48.57C75.598 46.5193 76.9163 44.2732 77.8604 41.8318C78.8369 39.3904 79.3252 36.8676 79.3252 34.2634C79.3252 31.3337 78.6742 28.99 77.3721 27.2321C76.07 25.4418 74.0355 24.1723 71.2686 23.4236C70.3896 23.7816 69.4945 24.2536 68.583 24.8396C67.6715 25.393 66.7764 26.0277 65.8975 26.7439C65.0511 27.46 64.2536 28.225 63.5049 29.0388C62.7562 29.82 62.1051 30.6013 61.5518 31.3825C61.2588 31.8057 60.9658 32.294 60.6729 32.8474C60.3799 33.3682 60.0381 34.0681 59.6475 34.947C59.2894 35.8259 58.8337 36.9489 58.2803 38.3161C57.7594 39.6508 57.1084 41.3435 56.3271 43.3943C55.5785 45.4125 54.6833 47.8376 53.6416 50.6696C52.5999 53.5017 51.363 56.8545 49.9307 60.7282C47.3916 67.6618 44.7712 73.684 42.0693 78.7946C39.3675 83.8728 36.5518 88.0883 33.6221 91.4411C30.6924 94.7614 27.6162 97.2354 24.3936 98.863C21.1709 100.458 17.7855 101.256 14.2373 101.256C5.18783 101.256 0.663086 96.0473 0.663086 85.6306C0.663086 83.3194 0.874674 80.8943 1.29785 78.3552C1.72103 75.8161 2.33952 73.2282 3.15332 70.5915C3.96712 67.9548 4.95996 65.3181 6.13184 62.6814C7.30371 60.0121 8.63835 57.4079 10.1357 54.8689C13.1956 49.6605 16.7601 44.9568 20.8291 40.7575C24.8981 36.5258 29.2601 32.945 33.915 30.0154C38.6025 27.0531 43.5016 24.7745 48.6123 23.1794C53.7555 21.5844 58.915 20.7868 64.0908 20.7868C67.4762 20.7868 70.5036 21.1286 73.1729 21.8122C75.8747 22.4958 78.1533 23.4887 80.0088 24.7907C81.8643 26.0928 83.2803 27.6879 84.2568 29.5759C85.2334 31.4639 85.7217 33.5961 85.7217 35.9724C85.7217 38.7719 85.0706 41.4411 83.7686 43.9802C82.499 46.5193 80.7412 48.7654 78.4951 50.7185C76.2816 52.639 73.6937 54.2015 70.7314 55.406C67.7692 56.5779 64.6279 57.2126 61.3076 57.3103C66.874 58.5473 71.0081 60.6631 73.71 63.6579C76.4443 66.6202 77.8115 70.4125 77.8115 75.0349C77.8115 77.3786 77.4697 79.6573 76.7861 81.8708C76.1025 84.0844 75.1423 86.1677 73.9053 88.1208C72.7008 90.0414 71.236 91.8155 69.5107 93.4431C67.7855 95.0381 65.8812 96.4216 63.7979 97.5935C61.7471 98.7654 59.5498 99.6605 57.2061 100.279C54.8623 100.93 52.4372 101.256 49.9307 101.256C48.4984 101.256 47.1963 101.142 46.0244 100.914C44.8525 100.686 43.7458 100.312 42.7041 99.7907C41.6624 99.3025 40.6696 98.6677 39.7256 97.8864C38.8141 97.0726 37.9027 96.0961 36.9912 94.9568L38.5537 93.3454ZM51.2002 39.3415C52.6325 36.7374 54.0811 34.5238 55.5459 32.7009C57.0433 30.878 58.5407 29.348 60.0381 28.1111C61.568 26.8415 63.098 25.8161 64.6279 25.0349C66.1904 24.2211 67.7692 23.5538 69.3643 23.0329C68.6156 22.9027 67.8018 22.8051 66.9229 22.74C66.0439 22.6749 65.1325 22.6423 64.1885 22.6423C59.3057 22.6423 54.4066 23.4398 49.4912 25.0349C44.6084 26.5974 39.9046 28.8272 35.3799 31.7243C30.8877 34.5889 26.6722 38.0557 22.7334 42.1247C18.8271 46.1612 15.4092 50.6371 12.4795 55.5525C9.51725 60.5329 7.25488 65.6111 5.69238 70.7868C4.16243 75.9301 3.39746 80.9105 3.39746 85.7282C3.39746 88.072 3.59277 90.0739 3.9834 91.7341C4.40658 93.3943 5.04134 94.7614 5.8877 95.8357C6.7666 96.8773 7.87337 97.6423 9.20801 98.1306C10.5752 98.6189 12.2191 98.863 14.1396 98.863C15.8324 98.863 17.3786 98.6677 18.7783 98.2771C20.2106 97.8864 21.5615 97.2191 22.8311 96.2751C24.1331 95.3311 25.4027 94.0941 26.6396 92.5642C27.8766 91.0342 29.1299 89.1299 30.3994 86.8513C31.6689 84.5726 33.0036 81.8871 34.4033 78.7946C35.8031 75.7022 37.333 72.1377 38.9932 68.1013C40.2627 65.0088 41.4346 62.0954 42.5088 59.3611C43.583 56.6267 44.6084 54.0713 45.585 51.695C46.5615 49.2862 47.5055 47.0564 48.417 45.0056C49.3285 42.9548 50.2562 41.0668 51.2002 39.3415ZM116.923 15.7575H124.198L102.372 75.6696C101.916 76.9392 101.461 78.2413 101.005 79.5759C100.549 80.878 100.142 82.1801 99.7842 83.4821C99.4587 84.7517 99.182 85.9887 98.9541 87.1931C98.7588 88.365 98.6611 89.4555 98.6611 90.4646C98.6611 92.7107 99.2471 94.501 100.419 95.8357C101.623 97.1703 103.479 97.8376 105.985 97.8376C108.166 97.8376 110.266 97.3656 112.284 96.4216C114.335 95.4776 116.353 94.0616 118.339 92.1736C120.357 90.253 122.375 87.8604 124.394 84.9958C126.412 82.0987 128.511 78.7295 130.692 74.8884L133.231 70.3962L134.55 71.3239L132.011 75.8161C129.634 80.0154 127.356 83.6612 125.175 86.7536C123.026 89.8135 120.862 92.3526 118.681 94.3708C116.532 96.3565 114.335 97.8376 112.089 98.8142C109.843 99.7907 107.45 100.279 104.911 100.279C102.925 100.279 101.168 99.9698 99.6377 99.3513C98.1403 98.7654 96.887 97.919 95.8779 96.8122C94.8363 95.7055 94.055 94.3708 93.5342 92.8083C93.0133 91.2458 92.7529 89.5043 92.7529 87.5837C92.7529 85.891 92.9482 84.0518 93.3389 82.0661C93.7295 80.0479 94.3317 77.9157 95.1455 75.6696L116.923 15.7575ZM143.681 41.49H150.907L138.456 75.6696C138 76.9392 137.545 78.2413 137.089 79.5759C136.633 80.878 136.226 82.1801 135.868 83.4821C135.543 84.7517 135.266 85.9887 135.038 87.1931C134.843 88.365 134.745 89.4555 134.745 90.4646C134.745 92.7107 135.347 94.501 136.552 95.8357C137.756 97.1703 139.595 97.8376 142.069 97.8376C144.25 97.8376 146.366 97.3656 148.417 96.4216C150.468 95.4776 152.486 94.0616 154.472 92.1736C156.49 90.253 158.508 87.8604 160.526 84.9958C162.545 82.1312 164.628 78.7621 166.776 74.8884L169.169 70.5915L179.813 41.49H187.04L174.589 75.6696C174.133 76.9392 173.677 78.2413 173.222 79.5759C172.766 80.878 172.359 82.1801 172.001 83.4821C171.675 84.7517 171.399 85.9887 171.171 87.1931C170.976 88.365 170.878 89.4555 170.878 90.4646C170.878 92.7107 171.464 94.501 172.636 95.8357C173.84 97.1703 175.696 97.8376 178.202 97.8376C180.383 97.8376 182.483 97.3656 184.501 96.4216C186.552 95.4776 188.57 94.0616 190.556 92.1736C192.574 90.253 194.592 87.8604 196.61 84.9958C198.629 82.0987 200.728 78.7295 202.909 74.8884L205.448 70.3962L206.718 71.3239L204.228 75.8161C201.884 80.0479 199.621 83.71 197.44 86.8025C195.292 89.8624 193.127 92.4014 190.946 94.4196C188.798 96.4053 186.584 97.8864 184.306 98.863C182.06 99.807 179.667 100.279 177.128 100.279C175.142 100.279 173.384 99.9698 171.854 99.3513C170.357 98.7654 169.088 97.919 168.046 96.8122C167.037 95.7055 166.272 94.3708 165.751 92.8083C165.23 91.2458 164.97 89.5043 164.97 87.5837C164.97 86.3142 165.084 84.947 165.312 83.4821C165.539 81.9848 165.881 80.4548 166.337 78.8923C164.156 82.5707 162.056 85.7608 160.038 88.4626C158.02 91.1319 156.002 93.3454 153.983 95.1032C151.965 96.8611 149.882 98.1631 147.733 99.0095C145.618 99.8558 143.371 100.279 140.995 100.279C139.009 100.279 137.252 99.9698 135.722 99.3513C134.224 98.7654 132.971 97.919 131.962 96.8122C130.92 95.7055 130.139 94.3708 129.618 92.8083C129.097 91.2458 128.837 89.5043 128.837 87.5837C128.837 85.891 129.049 84.0355 129.472 82.0173C129.862 79.9991 130.448 77.8832 131.229 75.6696L143.681 41.49ZM241.923 44.9568C241.923 44.4359 241.581 43.9151 240.897 43.3943C240.246 42.8409 239.286 42.5642 238.017 42.5642C236.715 42.5642 235.299 42.9711 233.769 43.7849C232.239 44.5661 230.497 45.9659 228.544 47.9841C226.591 50.0023 224.394 52.753 221.952 56.2361C219.543 59.7191 216.809 64.1625 213.749 69.5661L211.308 73.863L202.079 99.3513H194.804L215.897 41.49H223.124L214.579 64.9275C217.248 60.3376 219.69 56.4965 221.903 53.404C224.117 50.279 226.168 47.7725 228.056 45.8845C229.944 43.9639 231.718 42.5967 233.378 41.7829C235.038 40.9691 236.666 40.5622 238.261 40.5622C240.409 40.5622 242.086 41.197 243.29 42.4665C244.527 43.7361 245.146 45.3962 245.146 47.447C245.146 48.2933 245.032 49.1071 244.804 49.8884C244.608 50.6371 244.299 51.2881 243.876 51.8415C243.485 52.3949 242.997 52.8344 242.411 53.1599C241.825 53.4854 241.174 53.6482 240.458 53.6482C239.937 53.6482 239.416 53.5668 238.896 53.404C238.407 53.2413 237.968 52.9971 237.577 52.6716C237.187 52.3135 236.861 51.8904 236.601 51.4021C236.373 50.9138 236.259 50.3441 236.259 49.6931C236.259 49.1723 236.34 48.6514 236.503 48.1306C236.698 47.5772 236.959 47.1052 237.284 46.7146C237.61 46.2914 238 45.9496 238.456 45.6892C238.912 45.4288 239.416 45.2986 239.97 45.2986C240.328 45.2986 240.67 45.3311 240.995 45.3962C241.06 45.4613 241.142 45.5264 241.239 45.5915C241.369 45.6241 241.467 45.6404 241.532 45.6404C241.793 45.6404 241.923 45.4125 241.923 44.9568Z" fill="black"/>
<path d="M54.686 125.351C60.3946 116.664 87.024 104.502 107.873 125.351C128.722 146.2 157.806 134.038 164.741 125.351" stroke="black" stroke-width="3"/>
</svg>
