<svg width="730" height="181" viewBox="0 0 730 181" fill="none" xmlns="http://www.w3.org/2000/svg">
<path d="M679.038 92.9844C678.713 93.2122 678.338 93.3262 677.915 93.3262C677.492 93.3262 677.15 93.2122 676.89 92.9844C676.629 92.724 676.499 92.3984 676.499 92.0078C676.499 91.5846 676.694 91.1126 677.085 90.5918C677.443 90.0384 678.094 89.485 679.038 88.9316L691.392 81.6562C692.303 79.0846 693.475 76.8711 694.907 75.0156C696.372 73.1276 697.967 71.5814 699.692 70.377C701.45 69.14 703.273 68.2285 705.161 67.6426C707.082 67.0241 708.937 66.7148 710.728 66.7148C712.55 66.7148 714.048 67.2031 715.22 68.1797C716.424 69.1237 717.026 70.6048 717.026 72.623C717.026 73.86 716.571 75.1621 715.659 76.5293C714.78 77.8639 713.56 79.1986 711.997 80.5332C710.467 81.8353 708.66 83.056 706.577 84.1953C704.494 85.3346 702.28 86.2949 699.937 87.0762C699.937 88.6387 699.904 90.1198 699.839 91.5195C699.806 92.9193 699.79 94.2376 699.79 95.4746C699.79 96.5163 699.823 97.4766 699.888 98.3555C699.953 99.2018 700.083 99.9342 700.278 100.553C700.506 101.139 700.799 101.611 701.157 101.969C701.548 102.294 702.036 102.457 702.622 102.457C703.534 102.457 704.624 102.099 705.894 101.383C707.196 100.634 708.823 99.6901 710.776 98.5508C712.534 97.5091 714.78 96.207 717.515 94.6445C720.249 93.082 723.586 91.1777 727.524 88.9316C727.655 88.834 727.834 88.7852 728.062 88.7852C728.42 88.7852 728.729 88.9479 728.989 89.2734C729.282 89.5664 729.429 89.9408 729.429 90.3965C729.429 90.7871 729.282 91.2103 728.989 91.666C728.729 92.1217 728.241 92.5612 727.524 92.9844C724.302 94.9049 721.177 96.8581 718.149 98.8438C715.122 100.797 712.257 102.587 709.556 104.215C706.886 105.81 704.412 107.128 702.134 108.17C699.855 109.179 697.869 109.684 696.177 109.684C695.037 109.684 694.028 109.439 693.149 108.951C692.303 108.463 691.571 107.682 690.952 106.607C690.366 105.533 689.91 104.133 689.585 102.408C689.292 100.65 689.146 98.5182 689.146 96.0117C689.146 95.6211 689.162 95.0026 689.194 94.1562C689.259 93.2773 689.341 92.3496 689.438 91.373C689.569 90.3639 689.715 89.3874 689.878 88.4434C690.041 87.4993 690.236 86.7669 690.464 86.2461C690.236 86.3763 689.894 86.5716 689.438 86.832C689.015 87.0924 688.511 87.4017 687.925 87.7598C687.339 88.0853 686.72 88.4434 686.069 88.834C685.418 89.2246 684.767 89.6152 684.116 90.0059L679.038 92.9844ZM711.753 73.0137C711.818 72.8184 711.851 72.6068 711.851 72.3789C711.851 71.5651 711.704 70.9629 711.411 70.5723C711.151 70.1816 710.695 69.9863 710.044 69.9863C709.295 69.9863 708.433 70.2793 707.456 70.8652C706.479 71.4186 705.519 72.2487 704.575 73.3555C703.664 74.4622 702.834 75.8457 702.085 77.5059C701.369 79.166 700.881 81.0703 700.62 83.2188C701.955 82.5352 703.257 81.7539 704.526 80.875C705.796 79.9635 706.935 79.0521 707.944 78.1406C708.986 77.1966 709.832 76.2852 710.483 75.4062C711.167 74.4948 711.59 73.6973 711.753 73.0137Z" fill="black"/>
<path d="M678.013 40.8848C676.157 40.8848 674.399 41.2754 672.739 42.0566C671.079 42.8379 669.5 43.9121 668.003 45.2793C666.538 46.6465 665.155 48.2741 663.853 50.1621C662.55 52.0501 661.33 54.0846 660.19 56.2656C659.051 58.4466 657.993 60.7415 657.017 63.1504C656.073 65.5592 655.21 67.9844 654.429 70.4258C658.823 67.2682 662.681 64.2734 666.001 61.4414C669.321 58.6094 672.104 56.0215 674.351 53.6777C676.597 51.334 678.273 49.2669 679.38 47.4766C680.519 45.6536 681.089 44.1725 681.089 43.0332C681.089 42.3822 680.877 41.8613 680.454 41.4707C680.063 41.0801 679.25 40.8848 678.013 40.8848ZM682.944 69.6934C683.726 70.084 684.116 70.556 684.116 71.1094C684.116 71.9557 683.791 72.737 683.14 73.4531C682.521 74.1693 681.691 74.8203 680.649 75.4062C679.64 75.9596 678.485 76.4479 677.183 76.8711C675.913 77.2943 674.627 77.6523 673.325 77.9453C672.056 78.2383 670.835 78.4661 669.663 78.6289C668.361 78.7917 667.384 78.8568 666.733 78.8242C664.194 78.7591 661.688 78.7103 659.214 78.6777L652.036 78.5801C651.06 82.2259 650.295 85.3509 649.741 87.9551C649.188 90.5267 648.765 92.7728 648.472 94.6934C648.211 96.5814 648.049 98.2253 647.983 99.625C647.918 101.025 647.886 102.376 647.886 103.678C647.886 104.394 647.983 104.964 648.179 105.387C648.374 105.81 648.7 106.021 649.155 106.021C650.75 106.021 652.508 105.484 654.429 104.41C656.382 103.336 658.563 101.969 660.972 100.309L669.077 94.791C673.504 91.7637 676.825 89.8105 679.038 88.9316C679.201 88.8665 679.526 88.7201 680.015 88.4922C680.275 88.3945 680.519 88.3457 680.747 88.3457C681.463 88.3457 681.821 88.7201 681.821 89.4688C681.821 89.957 681.61 90.5267 681.187 91.1777C680.731 91.7962 680.015 92.3984 679.038 92.9844C674.058 95.9792 670.379 98.3229 668.003 100.016L659.653 106.07C657.179 107.828 654.917 109.228 652.866 110.27C650.783 111.311 648.683 111.832 646.567 111.832C644.744 111.832 643.328 111.344 642.319 110.367C641.343 109.391 640.61 108.202 640.122 106.803C639.666 105.37 639.39 103.84 639.292 102.213C639.194 100.585 639.146 99.1367 639.146 97.8672C639.146 95.3932 639.276 92.9355 639.536 90.4941C639.829 88.0527 640.203 85.709 640.659 83.4629L632.993 88.2969L625.132 92.9844C624.969 93.082 624.79 93.1309 624.595 93.1309C624.237 93.1309 623.895 92.9844 623.569 92.6914C623.244 92.3659 623.081 91.9753 623.081 91.5195C623.081 91.1615 623.228 90.7546 623.521 90.2988C623.813 89.8431 624.351 89.3874 625.132 88.9316L633.774 84C636.509 82.3724 639.146 80.7285 641.685 79.0684L641.782 78.6289L635.532 78.7754C635.207 78.7754 634.897 78.7917 634.604 78.8242C634.312 78.8568 634.035 78.873 633.774 78.873C633.221 78.873 632.765 78.7103 632.407 78.3848C632.082 78.0267 631.886 77.6361 631.821 77.2129C631.821 76.8548 632.098 76.513 632.651 76.1875C633.205 75.862 633.986 75.569 634.995 75.3086C636.004 75.0156 637.209 74.7552 638.608 74.5273C640.008 74.2669 641.554 74.0391 643.247 73.8438C645.2 67.724 647.316 62.418 649.595 57.9258C651.873 53.4336 654.429 49.7227 657.261 46.793C660.125 43.8633 663.315 41.6823 666.831 40.25C670.347 38.8177 674.318 38.1016 678.745 38.1016C680.796 38.1016 682.277 38.4271 683.188 39.0781C684.132 39.6966 684.604 40.5755 684.604 41.7148C684.604 43.2773 683.905 45.1654 682.505 47.3789C681.138 49.5924 679.201 52.0501 676.694 54.752C674.22 57.4212 671.242 60.2695 667.759 63.2969C664.308 66.2917 660.483 69.3678 656.284 72.5254C658.368 72.3301 660.483 72.151 662.632 71.9883L668.979 71.4512C671.063 71.2884 673.097 71.1094 675.083 70.9141C677.101 70.7188 679.022 70.5072 680.845 70.2793C681.203 70.1816 681.463 70.0514 681.626 69.8887C681.789 69.6934 682.065 69.5957 682.456 69.5957C682.586 69.5957 682.749 69.6283 682.944 69.6934Z" fill="black"/>
<path d="M556.187 92.9844C555.959 93.1146 555.747 93.1797 555.552 93.1797C555.226 93.1797 554.982 93.0495 554.819 92.7891C554.657 92.4961 554.575 92.138 554.575 91.7148C554.575 91.2591 554.689 90.7708 554.917 90.25C555.145 89.7292 555.568 89.2897 556.187 88.9316L574.253 78.2871C576.499 76.985 578.892 75.862 581.431 74.918C583.97 73.974 586.541 73.209 589.146 72.623C591.782 72.0046 594.386 71.5651 596.958 71.3047C599.53 71.0117 601.955 70.8652 604.233 70.8652C605.535 70.8652 606.756 70.9629 607.896 71.1582C609.035 71.321 610.011 71.5814 610.825 71.9395C611.672 72.265 612.323 72.6719 612.778 73.1602C613.267 73.6484 613.511 74.2018 613.511 74.8203C613.511 75.276 613.348 75.6016 613.022 75.7969C612.697 75.9922 612.306 76.1387 611.851 76.2363C611.427 76.3014 610.972 76.3503 610.483 76.3828C610.028 76.4154 609.67 76.4967 609.409 76.627C609.214 77.2454 608.905 78.2057 608.481 79.5078C608.058 80.7773 607.635 82.0957 607.212 83.4629C606.789 84.7975 606.398 86.002 606.04 87.0762C605.715 88.1178 605.535 88.7201 605.503 88.8828C605.08 90.25 604.494 91.9915 603.745 94.1074C603.029 96.1908 602.231 98.9902 601.353 102.506C601.385 102.506 601.743 102.327 602.427 101.969C603.143 101.578 604.054 101.074 605.161 100.455C606.3 99.8366 607.586 99.1204 609.019 98.3066C610.451 97.4928 611.932 96.6628 613.462 95.8164L625.132 88.9316C625.588 88.6712 625.978 88.541 626.304 88.541C626.662 88.541 626.938 88.6712 627.134 88.9316C627.329 89.1595 627.427 89.4525 627.427 89.8105C627.427 90.2663 627.248 90.8034 626.89 91.4219C626.532 92.0078 625.946 92.5286 625.132 92.9844L599.155 108.219C598.504 108.609 597.902 108.886 597.349 109.049C596.795 109.212 596.291 109.293 595.835 109.293C595.184 109.293 594.631 109.146 594.175 108.854C593.719 108.561 593.345 108.154 593.052 107.633C592.759 107.112 592.531 106.526 592.368 105.875C592.238 105.191 592.173 104.475 592.173 103.727C592.173 102.913 592.254 102.099 592.417 101.285C592.58 100.471 592.791 99.6901 593.052 98.9414C592.108 100.797 591.001 102.408 589.731 103.775C588.494 105.143 587.16 106.298 585.728 107.242C584.328 108.154 582.879 108.837 581.382 109.293C579.884 109.749 578.42 109.977 576.987 109.977C575.555 109.977 574.204 109.749 572.935 109.293C571.665 108.837 570.542 108.17 569.565 107.291C568.621 106.38 567.873 105.257 567.319 103.922C566.766 102.587 566.489 101.041 566.489 99.2832C566.489 98.2415 566.587 97.0859 566.782 95.8164C567.01 94.5469 567.303 93.2611 567.661 91.959C568.019 90.6569 568.426 89.3874 568.882 88.1504C569.338 86.8809 569.81 85.7253 570.298 84.6836L556.187 92.9844ZM600.571 75.0156C597.967 75.0156 595.477 75.4551 593.101 76.334C590.724 77.2129 588.511 78.3685 586.46 79.8008C584.442 81.2331 582.603 82.877 580.942 84.7324C579.315 86.5553 577.915 88.4434 576.743 90.3965C575.604 92.3171 574.709 94.2214 574.058 96.1094C573.439 97.9974 573.13 99.6901 573.13 101.188C573.13 102.848 573.488 104.199 574.204 105.24C574.953 106.249 576.157 106.754 577.817 106.754C578.794 106.754 579.852 106.461 580.991 105.875C582.163 105.257 583.335 104.459 584.507 103.482C585.711 102.473 586.883 101.35 588.022 100.113C589.194 98.8438 590.269 97.5742 591.245 96.3047C592.222 95.0026 593.068 93.7493 593.784 92.5449C594.533 91.3079 595.07 90.2337 595.396 89.3223L600.571 75.0156Z" fill="black"/>
<path d="M556.138 88.9316C556.528 88.7363 556.886 88.6387 557.212 88.6387C557.57 88.6387 557.847 88.7689 558.042 89.0293C558.237 89.2572 558.335 89.5501 558.335 89.9082C558.335 90.3639 558.156 90.8848 557.798 91.4707C557.44 92.0241 556.886 92.5286 556.138 92.9844C554.25 94.2865 552.345 95.5072 550.425 96.6465C548.537 97.7858 546.6 98.86 544.614 99.8691C542.922 100.748 541.131 101.594 539.243 102.408C537.355 103.222 535.418 103.954 533.433 104.605C531.479 105.257 529.494 105.777 527.476 106.168C525.49 106.559 523.553 106.754 521.665 106.754C521.405 106.754 521.128 106.754 520.835 106.754C520.575 106.754 520.314 106.738 520.054 106.705C518.133 109.212 516.506 111.327 515.171 113.053C513.836 114.778 512.664 116.292 511.655 117.594C510.679 118.928 509.8 120.117 509.019 121.158C508.237 122.2 507.424 123.274 506.577 124.381C505.731 125.52 504.787 126.773 503.745 128.141C502.736 129.508 501.499 131.152 500.034 133.072C506.447 134.146 512.843 135.335 519.224 136.637C525.604 137.971 531.772 139.225 537.729 140.396C543.687 141.568 549.334 142.545 554.673 143.326C560.044 144.14 564.927 144.563 569.321 144.596C570.135 144.596 570.737 144.742 571.128 145.035C571.551 145.328 571.763 145.67 571.763 146.061C571.763 146.712 571.258 147.33 570.249 147.916C569.272 148.535 567.743 148.844 565.659 148.844C561.102 148.746 556.121 148.274 550.718 147.428C545.314 146.581 539.65 145.572 533.726 144.4C527.801 143.261 521.714 142.04 515.464 140.738C509.214 139.469 502.98 138.346 496.763 137.369L495.688 138.785C490.708 145.263 486.037 151.057 481.675 156.168C477.345 161.279 473.195 165.608 469.224 169.156C465.285 172.704 461.493 175.423 457.847 177.311C454.233 179.199 450.669 180.143 447.153 180.143C442.824 180.143 439.129 179.752 436.069 178.971C433.009 178.222 430.519 177.18 428.599 175.846C426.646 174.511 425.229 172.932 424.351 171.109C423.439 169.319 422.983 167.382 422.983 165.299C422.983 162.825 423.553 160.221 424.692 157.486C425.832 154.785 427.41 152.115 429.429 149.479C431.447 146.842 433.84 144.335 436.606 141.959C439.373 139.583 442.384 137.483 445.64 135.66C448.895 133.87 452.313 132.438 455.894 131.363C459.507 130.289 463.169 129.752 466.88 129.752C471.144 129.752 475.457 129.947 479.819 130.338C484.181 130.761 488.69 131.314 493.345 131.998C494.386 130.631 495.282 129.459 496.03 128.482C496.779 127.506 497.511 126.546 498.228 125.602C498.976 124.69 499.774 123.714 500.62 122.672C501.466 121.63 502.508 120.344 503.745 118.814C504.982 117.317 506.463 115.494 508.188 113.346C509.946 111.23 512.095 108.626 514.634 105.533C514.015 105.273 513.413 105.012 512.827 104.752C512.274 104.459 511.737 104.15 511.216 103.824C507.635 106.526 504.201 108.837 500.913 110.758C497.625 112.711 494.5 114.306 491.538 115.543C488.576 116.78 485.76 117.675 483.091 118.229C480.454 118.814 477.98 119.107 475.669 119.107C471.86 119.107 468.475 118.408 465.513 117.008C462.583 115.608 460.109 113.671 458.091 111.197C456.105 108.723 454.591 105.826 453.55 102.506C452.508 99.153 451.987 95.5234 451.987 91.6172C451.987 88.0365 452.41 84.3255 453.257 80.4844C454.136 76.6432 455.552 72.7858 457.505 68.9121C459.458 65.0059 462.03 61.1322 465.22 57.291C468.442 53.4499 472.381 49.7389 477.036 46.1582C481.724 42.5449 487.209 39.1107 493.491 35.8555C499.774 32.6003 506.984 29.6055 515.122 26.8711C512.583 25.6992 509.621 24.7064 506.235 23.8926C502.85 23.0788 499.09 22.4277 494.956 21.9395C490.822 21.4186 486.33 21.0443 481.479 20.8164C476.662 20.5885 471.535 20.4746 466.099 20.4746C455.226 20.4746 443.377 20.8164 430.552 21.5C417.694 22.1836 404.038 23.0299 389.585 24.0391C389.748 23.9089 389.862 23.7949 389.927 23.6973C389.959 23.5671 389.976 23.4694 389.976 23.4043C389.976 23.2415 389.943 23.0951 389.878 22.9648C389.78 22.8021 389.731 22.6719 389.731 22.5742C389.731 22.4115 389.862 22.1999 390.122 21.9395C390.578 21.9395 391.017 21.9557 391.44 21.9883C391.831 21.9883 392.254 21.9883 392.71 21.9883C395.607 21.9883 398.781 21.8906 402.231 21.6953C405.649 21.4674 409.295 21.1908 413.169 20.8652C417.01 20.5072 421.063 20.1491 425.327 19.791C429.559 19.4004 433.937 19.0423 438.462 18.7168C442.987 18.3587 447.625 18.082 452.378 17.8867C457.131 17.6589 461.948 17.5449 466.831 17.5449C475.685 17.5449 484.523 18.0169 493.345 18.9609C502.199 19.8724 510.955 21.5977 519.614 24.1367C524.106 22.4766 528.289 21.207 532.163 20.3281C536.069 19.4492 539.845 19.0098 543.491 19.0098C549.383 19.0098 554.478 19.498 558.774 20.4746C563.071 21.4186 566.619 22.6556 569.419 24.1855C572.251 25.6829 574.351 27.3431 575.718 29.166C577.085 30.9889 577.769 32.7467 577.769 34.4395C577.769 35.5462 577.476 36.5879 576.89 37.5645C576.336 38.541 575.506 39.4036 574.399 40.1523C573.325 40.8685 571.958 41.4382 570.298 41.8613C568.67 42.2845 566.782 42.4961 564.634 42.4961C562.974 42.4961 561.151 42.3333 559.165 42.0078C557.179 41.6497 555.129 41.194 553.013 40.6406C550.897 40.0872 548.765 39.4525 546.616 38.7363C544.5 38.0202 542.466 37.2878 540.513 36.5391C538.169 35.6602 535.825 34.7324 533.481 33.7559C531.17 32.7467 528.826 31.6888 526.45 30.582C518.898 33.4466 512.03 36.5879 505.845 40.0059C499.692 43.3913 494.175 46.9395 489.292 50.6504C484.442 54.3288 480.226 58.1048 476.646 61.9785C473.065 65.8197 470.103 69.6283 467.759 73.4043C465.415 77.1803 463.657 80.8587 462.485 84.4395C461.346 87.9876 460.776 91.3079 460.776 94.4004C460.776 96.8418 461.086 99.0716 461.704 101.09C462.355 103.076 463.332 104.801 464.634 106.266C465.968 107.698 467.645 108.805 469.663 109.586C471.681 110.4 474.058 110.807 476.792 110.807C480.47 110.807 484.767 110.025 489.683 108.463C494.631 106.868 500.278 104.28 506.626 100.699C505.877 99.9505 505.503 99.2018 505.503 98.4531C505.503 98.0625 505.715 97.5905 506.138 97.0371C506.561 96.4837 507.114 95.9629 507.798 95.4746C508.514 94.9538 509.312 94.5143 510.19 94.1562C511.069 93.7656 511.965 93.5703 512.876 93.5703C513.983 93.5703 515.106 93.9935 516.245 94.8398C519.5 92.6914 522.886 90.3314 526.401 87.7598C529.917 85.1556 533.644 82.2747 537.583 79.1172L537.388 84.6836L524.155 101.432C524.578 101.529 525.002 101.594 525.425 101.627C525.848 101.66 526.287 101.676 526.743 101.676C528.208 101.676 529.738 101.497 531.333 101.139C532.961 100.781 534.588 100.309 536.216 99.7227C537.876 99.1042 539.52 98.4206 541.147 97.6719C542.775 96.8906 544.321 96.1094 545.786 95.3281C547.544 94.3841 549.269 93.3913 550.962 92.3496C552.655 91.2754 554.38 90.1361 556.138 88.9316ZM490.073 136.393C486.427 135.904 482.847 135.514 479.331 135.221C475.848 134.96 472.381 134.83 468.931 134.83C465.806 134.83 462.599 135.286 459.312 136.197C456.056 137.141 452.866 138.395 449.741 139.957C446.649 141.552 443.719 143.375 440.952 145.426C438.218 147.477 435.825 149.609 433.774 151.822C431.691 154.068 430.047 156.331 428.843 158.609C427.638 160.888 427.036 163.02 427.036 165.006C427.036 166.503 427.41 167.87 428.159 169.107C428.908 170.377 430.096 171.467 431.724 172.379C433.319 173.323 435.402 174.055 437.974 174.576C440.545 175.097 443.67 175.357 447.349 175.357C450.311 175.357 453.208 174.69 456.04 173.355C458.905 172.021 461.655 170.263 464.292 168.082C466.929 165.934 469.451 163.492 471.86 160.758C474.269 158.023 476.515 155.273 478.599 152.506C480.715 149.739 482.651 147.07 484.409 144.498C486.167 141.926 487.713 139.713 489.048 137.857L490.073 136.393ZM566.196 39.127C568.247 39.127 569.712 38.8828 570.591 38.3945C571.502 37.8737 571.958 37.1901 571.958 36.3438C571.958 35.6276 571.649 34.8301 571.03 33.9512C570.444 33.0723 569.631 32.1934 568.589 31.3145C567.547 30.403 566.326 29.5241 564.927 28.6777C563.527 27.8314 562.013 27.0827 560.386 26.4316C558.791 25.7806 557.114 25.2598 555.356 24.8691C553.631 24.446 551.922 24.2344 550.229 24.2344C548.504 24.2344 546.86 24.3158 545.298 24.4785C543.735 24.6087 542.205 24.8366 540.708 25.1621C539.211 25.4551 537.713 25.8457 536.216 26.334C534.751 26.7897 533.237 27.3268 531.675 27.9453C532.391 28.2383 533.498 28.7266 534.995 29.4102C536.525 30.0612 538.283 30.8099 540.269 31.6562C542.287 32.4701 544.451 33.3164 546.763 34.1953C549.106 35.0742 551.434 35.888 553.745 36.6367C556.056 37.3529 558.286 37.9551 560.435 38.4434C562.616 38.8991 564.536 39.127 566.196 39.127ZM528.892 88.1992C527.134 89.957 525.409 91.6172 523.716 93.1797C522.056 94.7096 520.396 96.207 518.735 97.6719L519.028 98.0625C519.159 98.2253 519.289 98.4043 519.419 98.5996C519.549 98.7624 519.696 98.9251 519.858 99.0879L528.892 88.1992Z" fill="black"/>
<path d="M411.704 77.3594C410.467 77.3594 408.921 77.7174 407.065 78.4336C405.21 79.1172 403.175 80.0775 400.962 81.3145C398.748 82.5189 396.437 83.9512 394.028 85.6113C391.652 87.2715 389.308 89.0781 386.997 91.0312C384.718 92.9844 382.537 95.0514 380.454 97.2324C378.403 99.3809 376.613 101.546 375.083 103.727C374.92 103.889 374.839 104.264 374.839 104.85C374.839 105.403 374.741 105.989 374.546 106.607C374.383 107.226 374.041 107.779 373.521 108.268C373 108.756 372.137 109 370.933 109C370.086 109 369.419 108.902 368.931 108.707C368.475 108.512 368.117 108.251 367.856 107.926C367.629 107.568 367.482 107.161 367.417 106.705C367.352 106.217 367.319 105.68 367.319 105.094C367.319 104.508 367.482 103.645 367.808 102.506C368.133 101.367 368.556 100.048 369.077 98.5508C369.598 97.0534 370.184 95.4421 370.835 93.7168C371.486 91.9915 372.137 90.2663 372.788 88.541C373.472 86.8158 374.106 85.1393 374.692 83.5117C375.311 81.8841 375.832 80.4193 376.255 79.1172L352.671 92.9844C352.508 93.0169 352.378 93.0495 352.28 93.082C352.15 93.082 352.052 93.082 351.987 93.082C351.532 93.082 351.206 92.9681 351.011 92.7402C350.783 92.4798 350.669 92.1706 350.669 91.8125C350.669 91.3568 350.848 90.8685 351.206 90.3477C351.532 89.7943 352.02 89.3223 352.671 88.9316C357.554 86.0345 361.574 83.6582 364.731 81.8027C367.922 79.9147 370.477 78.401 372.397 77.2617C374.318 76.1224 375.75 75.276 376.694 74.7227C377.671 74.1693 378.403 73.7624 378.892 73.502C379.347 73.2415 379.754 73.0625 380.112 72.9648C380.503 72.8672 380.926 72.8184 381.382 72.8184C382.326 72.8184 383.091 73.0951 383.677 73.6484C384.295 74.2018 384.604 74.8203 384.604 75.5039C384.604 76.1875 384.393 77.1315 383.97 78.3359C383.547 79.5078 383.026 80.7936 382.407 82.1934C381.789 83.5931 381.154 85.0254 380.503 86.4902C379.852 87.9225 379.299 89.2572 378.843 90.4941C378.647 90.9824 378.485 91.3893 378.354 91.7148C378.257 92.0078 378.127 92.3496 377.964 92.7402C377.834 93.1309 377.638 93.6354 377.378 94.2539C377.118 94.8398 376.743 95.6699 376.255 96.7441C377.622 94.9863 379.217 93.1471 381.04 91.2266C382.896 89.306 384.897 87.4342 387.046 85.6113C389.227 83.7559 391.538 81.998 393.979 80.3379C396.453 78.6777 398.993 77.2292 401.597 75.9922C404.233 74.7227 406.919 73.7298 409.653 73.0137C412.388 72.265 415.106 71.8906 417.808 71.8906C419.468 71.8906 420.607 72.2487 421.226 72.9648C421.877 73.6484 422.202 74.5924 422.202 75.7969C422.202 76.7734 422.023 77.9616 421.665 79.3613C421.307 80.7611 420.819 82.291 420.2 83.9512C419.582 85.5788 418.882 87.3366 418.101 89.2246C417.319 91.0801 416.489 92.9681 415.61 94.8887C414.764 96.7767 413.901 98.681 413.022 100.602C412.176 102.522 411.379 104.361 410.63 106.119C412.485 105.37 414.422 104.394 416.44 103.189C418.459 101.985 420.607 100.634 422.886 99.1367C425.197 97.6393 427.622 96.028 430.161 94.3027C432.733 92.5449 435.483 90.7546 438.413 88.9316C438.641 88.8014 438.95 88.7363 439.341 88.7363C440.122 88.7363 440.513 89.1758 440.513 90.0547C440.513 90.5104 440.334 91.015 439.976 91.5684C439.618 92.0892 439.097 92.5612 438.413 92.9844C434.539 95.3932 431.04 97.6882 427.915 99.8691C424.79 102.05 421.925 103.987 419.321 105.68C416.75 107.372 414.39 108.707 412.241 109.684C410.125 110.693 408.156 111.197 406.333 111.197C405.226 111.197 404.282 111.051 403.501 110.758C402.72 110.497 402.069 110.139 401.548 109.684C401.06 109.228 400.685 108.691 400.425 108.072C400.197 107.421 400.083 106.754 400.083 106.07C400.083 105.322 400.229 104.589 400.522 103.873C400.848 103.124 401.287 102.327 401.841 101.48C402.85 99.2669 403.973 96.9557 405.21 94.5469C406.447 92.1055 407.586 89.7943 408.628 87.6133C409.67 85.4323 410.549 83.4954 411.265 81.8027C411.981 80.11 412.339 78.8893 412.339 78.1406C412.339 77.6198 412.127 77.3594 411.704 77.3594Z" fill="black"/>
<path d="M304.136 92.9844C303.81 93.2122 303.436 93.3262 303.013 93.3262C302.59 93.3262 302.248 93.2122 301.987 92.9844C301.727 92.724 301.597 92.3984 301.597 92.0078C301.597 91.5846 301.792 91.1126 302.183 90.5918C302.541 90.0384 303.192 89.485 304.136 88.9316L316.489 81.6562C317.401 79.0846 318.573 76.8711 320.005 75.0156C321.47 73.1276 323.065 71.5814 324.79 70.377C326.548 69.14 328.371 68.2285 330.259 67.6426C332.179 67.0241 334.035 66.7148 335.825 66.7148C337.648 66.7148 339.146 67.2031 340.317 68.1797C341.522 69.1237 342.124 70.6048 342.124 72.623C342.124 73.86 341.668 75.1621 340.757 76.5293C339.878 77.8639 338.657 79.1986 337.095 80.5332C335.565 81.8353 333.758 83.056 331.675 84.1953C329.591 85.3346 327.378 86.2949 325.034 87.0762C325.034 88.6387 325.002 90.1198 324.937 91.5195C324.904 92.9193 324.888 94.2376 324.888 95.4746C324.888 96.5163 324.92 97.4766 324.985 98.3555C325.05 99.2018 325.181 99.9342 325.376 100.553C325.604 101.139 325.897 101.611 326.255 101.969C326.646 102.294 327.134 102.457 327.72 102.457C328.631 102.457 329.722 102.099 330.991 101.383C332.293 100.634 333.921 99.6901 335.874 98.5508C337.632 97.5091 339.878 96.207 342.612 94.6445C345.347 93.082 348.683 91.1777 352.622 88.9316C352.752 88.834 352.931 88.7852 353.159 88.7852C353.517 88.7852 353.826 88.9479 354.087 89.2734C354.38 89.5664 354.526 89.9408 354.526 90.3965C354.526 90.7871 354.38 91.2103 354.087 91.666C353.826 92.1217 353.338 92.5612 352.622 92.9844C349.399 94.9049 346.274 96.8581 343.247 98.8438C340.22 100.797 337.355 102.587 334.653 104.215C331.984 105.81 329.51 107.128 327.231 108.17C324.953 109.179 322.967 109.684 321.274 109.684C320.135 109.684 319.126 109.439 318.247 108.951C317.401 108.463 316.668 107.682 316.05 106.607C315.464 105.533 315.008 104.133 314.683 102.408C314.39 100.65 314.243 98.5182 314.243 96.0117C314.243 95.6211 314.259 95.0026 314.292 94.1562C314.357 93.2773 314.438 92.3496 314.536 91.373C314.666 90.3639 314.813 89.3874 314.976 88.4434C315.138 87.4993 315.334 86.7669 315.562 86.2461C315.334 86.3763 314.992 86.5716 314.536 86.832C314.113 87.0924 313.608 87.4017 313.022 87.7598C312.437 88.0853 311.818 88.4434 311.167 88.834C310.516 89.2246 309.865 89.6152 309.214 90.0059L304.136 92.9844ZM336.851 73.0137C336.916 72.8184 336.948 72.6068 336.948 72.3789C336.948 71.5651 336.802 70.9629 336.509 70.5723C336.248 70.1816 335.793 69.9863 335.142 69.9863C334.393 69.9863 333.53 70.2793 332.554 70.8652C331.577 71.4186 330.617 72.2487 329.673 73.3555C328.761 74.4622 327.931 75.8457 327.183 77.5059C326.466 79.166 325.978 81.0703 325.718 83.2188C327.052 82.5352 328.354 81.7539 329.624 80.875C330.894 79.9635 332.033 79.0521 333.042 78.1406C334.084 77.1966 334.93 76.2852 335.581 75.4062C336.265 74.4948 336.688 73.6973 336.851 73.0137Z" fill="black"/>
<path d="M285.337 103.824C284.165 104.182 283.254 104.361 282.603 104.361C281.659 105.566 280.649 106.656 279.575 107.633C278.534 108.609 277.378 109.439 276.108 110.123C274.839 110.807 273.439 111.327 271.909 111.686C270.412 112.044 268.719 112.223 266.831 112.223C266.115 112.223 265.496 111.799 264.976 110.953C264.487 110.139 264.048 109.081 263.657 107.779C263.299 106.445 262.99 104.964 262.729 103.336C262.502 101.708 262.323 100.081 262.192 98.4531C262.062 96.8255 261.965 95.2956 261.899 93.8633C261.867 92.431 261.851 91.2591 261.851 90.3477C261.851 89.8594 261.851 89.4688 261.851 89.1758C261.851 88.8503 261.867 88.6549 261.899 88.5898L254.429 92.9844C254.038 93.1797 253.696 93.2773 253.403 93.2773C252.59 93.2773 252.183 92.8216 252.183 91.9102C252.183 91.4544 252.362 90.9661 252.72 90.4453C253.045 89.9245 253.615 89.4199 254.429 88.9316L261.997 84.4883C262.127 82.8281 262.339 81.0703 262.632 79.2148C262.957 77.3268 263.397 75.5853 263.95 73.9902C264.536 72.3952 265.269 71.0768 266.147 70.0352C267.059 68.9609 268.182 68.4238 269.517 68.4238C270.265 68.4238 270.884 68.4889 271.372 68.6191C271.86 68.7493 272.235 68.9935 272.495 69.3516C272.788 69.6771 272.983 70.1654 273.081 70.8164C273.179 71.4674 273.228 72.2975 273.228 73.3066C273.228 74.7064 273.179 76.2852 273.081 78.043C272.983 79.8008 272.853 81.6562 272.69 83.6094C272.56 85.5299 272.397 87.4993 272.202 89.5176C272.039 91.5033 271.877 93.4238 271.714 95.2793C271.584 97.1022 271.47 98.8112 271.372 100.406C271.274 102.001 271.226 103.368 271.226 104.508C271.226 105.452 271.258 106.201 271.323 106.754C271.388 107.307 271.551 107.584 271.812 107.584C272.267 107.584 272.951 107.047 273.862 105.973C274.806 104.898 276.011 103.32 277.476 101.236C277.15 100.65 276.906 100.048 276.743 99.4297C276.613 98.7786 276.548 98.1764 276.548 97.623C276.548 96.4837 276.922 95.6374 277.671 95.084C278.42 94.5306 279.315 94.2539 280.356 94.2539C281.007 94.2539 281.528 94.319 281.919 94.4492C283.872 91.3893 286.037 87.9388 288.413 84.0977C290.789 80.2565 293.459 75.8945 296.421 71.0117L302.915 70.1816L292.808 87.0762C291.506 89.2572 290.317 91.3568 289.243 93.375C288.169 95.3607 287.111 97.2487 286.069 99.0391C286.167 99.4948 286.216 99.9505 286.216 100.406C286.216 100.406 286.46 100.243 286.948 99.918C287.469 99.625 288.153 99.2181 288.999 98.6973C289.845 98.1439 290.806 97.5254 291.88 96.8418C292.954 96.1582 294.045 95.4583 295.151 94.7422L304.136 88.9316C304.461 88.7363 304.771 88.6387 305.063 88.6387C305.422 88.6387 305.715 88.7689 305.942 89.0293C306.203 89.2897 306.333 89.6152 306.333 90.0059C306.333 90.4616 306.154 90.9499 305.796 91.4707C305.47 91.959 304.917 92.4635 304.136 92.9844C303.55 93.375 302.769 93.8796 301.792 94.498C300.848 95.1165 299.79 95.7839 298.618 96.5C297.479 97.2161 296.274 97.9486 295.005 98.6973C293.735 99.446 292.498 100.162 291.294 100.846C290.122 101.529 289.015 102.132 287.974 102.652C286.932 103.173 286.053 103.564 285.337 103.824Z" fill="black"/>
<path d="M185.483 92.9844C185.256 93.1146 185.044 93.1797 184.849 93.1797C184.523 93.1797 184.279 93.0495 184.116 92.7891C183.953 92.4961 183.872 92.138 183.872 91.7148C183.872 91.2591 183.986 90.7708 184.214 90.25C184.442 89.7292 184.865 89.2897 185.483 88.9316L203.55 78.2871C205.796 76.985 208.188 75.862 210.728 74.918C213.267 73.974 215.838 73.209 218.442 72.623C221.079 72.0046 223.683 71.5651 226.255 71.3047C228.826 71.0117 231.252 70.8652 233.53 70.8652C234.832 70.8652 236.053 70.9629 237.192 71.1582C238.332 71.321 239.308 71.5814 240.122 71.9395C240.968 72.265 241.619 72.6719 242.075 73.1602C242.563 73.6484 242.808 74.2018 242.808 74.8203C242.808 75.276 242.645 75.6016 242.319 75.7969C241.994 75.9922 241.603 76.1387 241.147 76.2363C240.724 76.3014 240.269 76.3503 239.78 76.3828C239.325 76.4154 238.966 76.4967 238.706 76.627C238.511 77.2454 238.201 78.2057 237.778 79.5078C237.355 80.7773 236.932 82.0957 236.509 83.4629C236.086 84.7975 235.695 86.002 235.337 87.0762C235.011 88.1178 234.832 88.7201 234.8 88.8828C234.377 90.25 233.791 91.9915 233.042 94.1074C232.326 96.1908 231.528 98.9902 230.649 102.506C230.682 102.506 231.04 102.327 231.724 101.969C232.44 101.578 233.351 101.074 234.458 100.455C235.597 99.8366 236.883 99.1204 238.315 98.3066C239.748 97.4928 241.229 96.6628 242.759 95.8164L254.429 88.9316C254.884 88.6712 255.275 88.541 255.601 88.541C255.959 88.541 256.235 88.6712 256.431 88.9316C256.626 89.1595 256.724 89.4525 256.724 89.8105C256.724 90.2663 256.545 90.8034 256.187 91.4219C255.828 92.0078 255.243 92.5286 254.429 92.9844L228.452 108.219C227.801 108.609 227.199 108.886 226.646 109.049C226.092 109.212 225.588 109.293 225.132 109.293C224.481 109.293 223.927 109.146 223.472 108.854C223.016 108.561 222.642 108.154 222.349 107.633C222.056 107.112 221.828 106.526 221.665 105.875C221.535 105.191 221.47 104.475 221.47 103.727C221.47 102.913 221.551 102.099 221.714 101.285C221.877 100.471 222.088 99.6901 222.349 98.9414C221.405 100.797 220.298 102.408 219.028 103.775C217.791 105.143 216.457 106.298 215.024 107.242C213.625 108.154 212.176 108.837 210.679 109.293C209.181 109.749 207.716 109.977 206.284 109.977C204.852 109.977 203.501 109.749 202.231 109.293C200.962 108.837 199.839 108.17 198.862 107.291C197.918 106.38 197.17 105.257 196.616 103.922C196.063 102.587 195.786 101.041 195.786 99.2832C195.786 98.2415 195.884 97.0859 196.079 95.8164C196.307 94.5469 196.6 93.2611 196.958 91.959C197.316 90.6569 197.723 89.3874 198.179 88.1504C198.634 86.8809 199.106 85.7253 199.595 84.6836L185.483 92.9844ZM229.868 75.0156C227.264 75.0156 224.774 75.4551 222.397 76.334C220.021 77.2129 217.808 78.3685 215.757 79.8008C213.739 81.2331 211.899 82.877 210.239 84.7324C208.612 86.5553 207.212 88.4434 206.04 90.3965C204.901 92.3171 204.006 94.2214 203.354 96.1094C202.736 97.9974 202.427 99.6901 202.427 101.188C202.427 102.848 202.785 104.199 203.501 105.24C204.25 106.249 205.454 106.754 207.114 106.754C208.091 106.754 209.149 106.461 210.288 105.875C211.46 105.257 212.632 104.459 213.804 103.482C215.008 102.473 216.18 101.35 217.319 100.113C218.491 98.8438 219.565 97.5742 220.542 96.3047C221.519 95.0026 222.365 93.7493 223.081 92.5449C223.83 91.3079 224.367 90.2337 224.692 89.3223L229.868 75.0156Z" fill="black"/>
<path d="M136.948 92.9844C136.623 93.2122 136.248 93.3262 135.825 93.3262C135.402 93.3262 135.06 93.2122 134.8 92.9844C134.539 92.724 134.409 92.3984 134.409 92.0078C134.409 91.5846 134.604 91.1126 134.995 90.5918C135.353 90.0384 136.004 89.485 136.948 88.9316L149.302 81.6562C150.213 79.0846 151.385 76.8711 152.817 75.0156C154.282 73.1276 155.877 71.5814 157.603 70.377C159.36 69.14 161.183 68.2285 163.071 67.6426C164.992 67.0241 166.847 66.7148 168.638 66.7148C170.461 66.7148 171.958 67.2031 173.13 68.1797C174.334 69.1237 174.937 70.6048 174.937 72.623C174.937 73.86 174.481 75.1621 173.569 76.5293C172.69 77.8639 171.47 79.1986 169.907 80.5332C168.377 81.8353 166.571 83.056 164.487 84.1953C162.404 85.3346 160.19 86.2949 157.847 87.0762C157.847 88.6387 157.814 90.1198 157.749 91.5195C157.716 92.9193 157.7 94.2376 157.7 95.4746C157.7 96.5163 157.733 97.4766 157.798 98.3555C157.863 99.2018 157.993 99.9342 158.188 100.553C158.416 101.139 158.709 101.611 159.067 101.969C159.458 102.294 159.946 102.457 160.532 102.457C161.444 102.457 162.534 102.099 163.804 101.383C165.106 100.634 166.733 99.6901 168.687 98.5508C170.444 97.5091 172.69 96.207 175.425 94.6445C178.159 93.082 181.496 91.1777 185.435 88.9316C185.565 88.834 185.744 88.7852 185.972 88.7852C186.33 88.7852 186.639 88.9479 186.899 89.2734C187.192 89.5664 187.339 89.9408 187.339 90.3965C187.339 90.7871 187.192 91.2103 186.899 91.666C186.639 92.1217 186.151 92.5612 185.435 92.9844C182.212 94.9049 179.087 96.8581 176.06 98.8438C173.032 100.797 170.168 102.587 167.466 104.215C164.797 105.81 162.323 107.128 160.044 108.17C157.765 109.179 155.78 109.684 154.087 109.684C152.948 109.684 151.938 109.439 151.06 108.951C150.213 108.463 149.481 107.682 148.862 106.607C148.276 105.533 147.821 104.133 147.495 102.408C147.202 100.65 147.056 98.5182 147.056 96.0117C147.056 95.6211 147.072 95.0026 147.104 94.1562C147.17 93.2773 147.251 92.3496 147.349 91.373C147.479 90.3639 147.625 89.3874 147.788 88.4434C147.951 87.4993 148.146 86.7669 148.374 86.2461C148.146 86.3763 147.804 86.5716 147.349 86.832C146.925 87.0924 146.421 87.4017 145.835 87.7598C145.249 88.0853 144.631 88.4434 143.979 88.834C143.328 89.2246 142.677 89.6152 142.026 90.0059L136.948 92.9844ZM169.663 73.0137C169.728 72.8184 169.761 72.6068 169.761 72.3789C169.761 71.5651 169.614 70.9629 169.321 70.5723C169.061 70.1816 168.605 69.9863 167.954 69.9863C167.205 69.9863 166.343 70.2793 165.366 70.8652C164.39 71.4186 163.429 72.2487 162.485 73.3555C161.574 74.4622 160.744 75.8457 159.995 77.5059C159.279 79.166 158.791 81.0703 158.53 83.2188C159.865 82.5352 161.167 81.7539 162.437 80.875C163.706 79.9635 164.845 79.0521 165.854 78.1406C166.896 77.1966 167.743 76.2852 168.394 75.4062C169.077 74.4948 169.5 73.6973 169.663 73.0137Z" fill="black"/>
<path d="M90.6104 102.945C90.6104 102.229 90.3825 101.66 89.9268 101.236C89.5036 100.813 89.0153 100.471 88.4619 100.211C87.9411 99.918 87.4528 99.6576 86.9971 99.4297C86.5739 99.1693 86.3623 98.8438 86.3623 98.4531C86.3623 97.8997 86.6064 97.3301 87.0947 96.7441C87.583 96.1582 88.3968 95.5397 89.5361 94.8887C89.5687 94.8887 89.6175 94.8561 89.6826 94.791C89.6501 94.3353 89.6338 93.8796 89.6338 93.4238C89.6338 92.9355 89.6338 92.4635 89.6338 92.0078C89.6338 85.7578 90.3825 79.3939 91.8799 72.916C93.4098 66.4056 95.4443 59.9277 97.9834 53.4824C94.6305 55.7936 91.1149 58.3001 87.4365 61.002C83.7581 63.7038 80.0309 66.4219 76.2549 69.1562C72.4788 71.8906 68.7028 74.5436 64.9268 77.1152C61.1507 79.6543 57.4886 81.9329 53.9404 83.9512C51.7594 90.8522 49.4482 96.8255 47.0068 101.871C44.5654 106.884 42.0589 111.148 39.4873 114.664C36.9482 118.18 34.3604 121.028 31.7236 123.209C29.1195 125.423 26.5641 127.132 24.0576 128.336C21.5511 129.573 19.1423 130.403 16.8311 130.826C14.4873 131.249 12.3063 131.461 10.2881 131.461C6.73991 131.461 4.15202 130.956 2.52441 129.947C0.89681 128.938 0.0830078 127.457 0.0830078 125.504C0.0830078 123.421 1.02702 120.898 2.91504 117.936C4.77051 115.006 7.47233 111.767 11.0205 108.219C14.5361 104.638 18.8167 100.829 23.8623 96.793C28.9404 92.7565 34.6696 88.6224 41.0498 84.3906C43.1006 79.8659 45.1514 75.097 47.2021 70.084C49.2855 65.071 51.2874 60.0091 53.208 54.8984C55.1286 49.7878 56.9515 44.7259 58.6768 39.7129C60.4346 34.6999 62.0296 29.9147 63.4619 25.3574C64.8942 20.8001 66.1312 16.5684 67.1729 12.6621C68.2471 8.72331 69.0609 5.30534 69.6143 2.4082C69.8421 1.88737 70.1351 1.49674 70.4932 1.23633C70.8512 0.975911 71.2256 0.845703 71.6162 0.845703C72.2347 0.845703 72.6904 1.05729 72.9834 1.48047C73.2764 1.90365 73.4229 2.44076 73.4229 3.0918V3.43359C72.8044 6.10286 72.137 9.14648 71.4209 12.5645C70.7048 15.9824 69.9235 19.6445 69.0771 23.5508C68.2633 27.4245 67.4007 31.4935 66.4893 35.7578C65.5778 39.9896 64.6012 44.3027 63.5596 48.6973C62.5505 53.0918 61.4762 57.4863 60.3369 61.8809C59.2301 66.2754 58.0745 70.5397 56.8701 74.6738C60.5811 72.8184 64.3083 70.7025 68.0518 68.3262C71.8278 65.9173 75.5876 63.4434 79.3311 60.9043C83.0745 58.3652 86.7529 55.8424 90.3662 53.3359C94.012 50.8294 97.5602 48.5182 101.011 46.4023C102.866 42.3659 104.852 38.4759 106.968 34.7324C109.116 30.9564 111.313 27.4408 113.56 24.1855C115.806 20.8978 118.068 17.9193 120.347 15.25C122.658 12.5482 124.904 10.2533 127.085 8.36523C129.299 6.44466 131.398 4.96354 133.384 3.92188C135.402 2.84766 137.257 2.31055 138.95 2.31055C140.252 2.31055 141.343 2.45703 142.222 2.75C143.133 3.01042 143.866 3.38477 144.419 3.87305C144.972 4.32878 145.363 4.88216 145.591 5.5332C145.819 6.18424 145.933 6.86784 145.933 7.58398C145.933 8.85352 145.656 10.2207 145.103 11.6855C144.582 13.1504 143.963 14.5501 143.247 15.8848C142.531 17.1868 141.815 18.3424 141.099 19.3516C140.382 20.3281 139.862 20.9792 139.536 21.3047L139.634 21.1094C139.438 21.1745 138.804 21.5977 137.729 22.3789C136.688 23.1276 135.272 24.1855 133.481 25.5527C131.724 26.8874 129.64 28.4824 127.231 30.3379C124.855 32.1608 122.235 34.1953 119.37 36.4414C116.961 41.0312 114.618 45.8815 112.339 50.9922C110.06 56.1029 108.026 61.2949 106.235 66.5684C104.445 71.8092 103.013 77.0339 101.938 82.2422C100.864 87.4505 100.327 92.431 100.327 97.1836V98.6973C101.271 99.8366 102.378 100.618 103.647 101.041C104.95 101.464 106.398 101.676 107.993 101.676C108.612 101.676 109.23 101.627 109.849 101.529C110.467 101.432 111.134 101.155 111.851 100.699L113.071 100.943C115.22 100.39 117.319 99.7064 119.37 98.8926C121.453 98.0462 123.472 97.1022 125.425 96.0605C127.41 95.0189 129.364 93.8958 131.284 92.6914C133.205 91.487 135.093 90.2337 136.948 88.9316C137.339 88.7363 137.697 88.6387 138.022 88.6387C138.381 88.6387 138.657 88.7689 138.853 89.0293C139.048 89.2572 139.146 89.5501 139.146 89.9082C139.146 90.3639 138.966 90.8848 138.608 91.4707C138.25 92.0241 137.697 92.5286 136.948 92.9844C134.019 95.0352 131.105 96.8743 128.208 98.502C125.343 100.097 122.235 101.594 118.882 102.994C119.305 103.352 119.549 103.743 119.614 104.166C119.679 104.557 119.712 104.931 119.712 105.289C124.692 105.289 129.429 105.582 133.921 106.168C138.413 106.721 142.58 107.503 146.421 108.512C150.295 109.488 153.778 110.628 156.87 111.93C159.995 113.232 162.648 114.632 164.829 116.129C167.043 117.626 168.735 119.173 169.907 120.768C171.112 122.363 171.714 123.925 171.714 125.455C171.714 127.473 171.014 129.231 169.614 130.729C168.247 132.226 166.375 133.479 163.999 134.488C161.623 135.53 158.823 136.295 155.601 136.783C152.41 137.304 148.993 137.564 145.347 137.564C141.408 137.564 137.306 137.255 133.042 136.637C128.81 136.051 124.66 135.139 120.591 133.902C116.554 132.665 112.713 131.119 109.067 129.264C105.454 127.441 102.28 125.276 99.5459 122.77C96.8115 120.263 94.6305 117.431 93.0029 114.273C91.4079 111.148 90.6104 107.682 90.6104 103.873V102.945ZM102.476 106.803C102.248 106.803 102.036 106.803 101.841 106.803C101.646 106.803 101.434 106.786 101.206 106.754C101.564 110.074 102.459 113.053 103.892 115.689C105.324 118.359 107.114 120.702 109.263 122.721C111.444 124.771 113.918 126.513 116.685 127.945C119.451 129.41 122.332 130.598 125.327 131.51C128.354 132.454 131.414 133.137 134.507 133.561C137.599 134.016 140.578 134.244 143.442 134.244C146.079 134.244 148.553 134.065 150.864 133.707C153.175 133.382 155.177 132.893 156.87 132.242C158.595 131.624 159.946 130.859 160.923 129.947C161.899 129.036 162.388 128.01 162.388 126.871C162.388 125.992 161.916 125.048 160.972 124.039C160.028 123.062 158.726 122.053 157.065 121.012C155.438 119.97 153.517 118.928 151.304 117.887C149.09 116.878 146.714 115.901 144.175 114.957C141.668 114.013 139.048 113.134 136.313 112.32C133.579 111.507 130.861 110.79 128.159 110.172C125.49 109.586 122.886 109.13 120.347 108.805C117.84 108.447 115.545 108.268 113.462 108.268C111.411 108.268 109.718 108.349 108.384 108.512C107.082 108.642 106.284 108.707 105.991 108.707C104.103 108.707 103.159 108.333 103.159 107.584C103.159 107.291 103.273 107.031 103.501 106.803H102.476ZM35.1416 96.7441C32.7979 98.502 30.4378 100.26 28.0615 102.018C25.7178 103.775 23.4717 105.501 21.3232 107.193C19.1423 108.854 17.1077 110.465 15.2197 112.027C13.3317 113.622 11.6878 115.104 10.2881 116.471C8.88835 117.87 7.79785 119.14 7.0166 120.279C6.2028 121.451 5.7959 122.46 5.7959 123.307C5.7959 124.251 6.34928 124.967 7.45605 125.455C8.53027 125.943 10.3369 126.188 12.876 126.188C14.6338 126.188 16.18 125.911 17.5146 125.357C18.8493 124.837 20.0863 124.023 21.2256 122.916C22.3649 121.842 23.4229 120.491 24.3994 118.863C25.4085 117.236 26.4502 115.331 27.5244 113.15C28.5986 110.969 29.738 108.512 30.9424 105.777C32.1794 103.043 33.5791 100.032 35.1416 96.7441ZM138.95 6.2168C138.527 6.44466 137.795 7.20964 136.753 8.51172C135.711 9.78125 134.458 11.4902 132.993 13.6387C131.528 15.7546 129.901 18.2611 128.11 21.1582C126.32 24.0228 124.465 27.1641 122.544 30.582C125.701 28.1732 128.582 25.8945 131.187 23.7461C133.791 21.5977 136.021 19.5957 137.876 17.7402C139.731 15.8848 141.164 14.2083 142.173 12.7109C143.215 11.181 143.735 9.84635 143.735 8.70703C143.735 6.91667 142.466 5.67969 139.927 4.99609L139.438 5.58203C139.308 5.74479 139.194 5.89128 139.097 6.02148C138.999 6.11914 138.95 6.18424 138.95 6.2168Z" fill="black"/>
</svg>
