<svg width="60" height="20" viewBox="0 0 60 20" fill="none" xmlns="http://www.w3.org/2000/svg">
<path d="M0.462528 10.4077H59.5395C59.7664 10.4077 59.9497 10.2244 59.9497 9.99745C59.9497 9.77052 59.7664 9.58719 59.5395 9.58719H1.45355L3.9433 7.09745C4.10355 6.93719 4.10355 6.67693 3.9433 6.51668C3.78304 6.35642 3.52278 6.35642 3.36253 6.51668L0.171501 9.7077C0.0535524 9.82565 0.0189358 10.0013 0.0830383 10.1551C0.147141 10.3077 0.297144 10.4077 0.462528 10.4077Z" fill="white"/>
<path d="M3.65745 13.6026C3.76257 13.6026 3.8677 13.5628 3.94719 13.4821C4.10745 13.3218 4.10745 13.0616 3.94719 12.9013L0.752318 9.70643C0.592062 9.54618 0.331806 9.54618 0.17155 9.70643C0.0112933 9.86669 0.0112933 10.1269 0.17155 10.2872L3.36642 13.4821C3.44719 13.5628 3.55232 13.6026 3.65745 13.6026Z" fill="white"/>
</svg>
