<svg width="313" height="121" viewBox="0 0 313 121" fill="none" xmlns="http://www.w3.org/2000/svg">
<path d="M53.2496 101.504C49.8496 101.504 46.7829 100.504 44.0496 98.5036C41.3829 96.5036 39.6829 93.6036 38.9496 89.8036C34.8829 88.6703 31.9496 86.6036 30.1496 83.6036C28.3496 80.5369 27.4496 77.0036 27.4496 73.0036C27.4496 69.2036 28.1496 65.2703 29.5496 61.2036C31.0163 57.1369 33.0496 53.3703 35.6496 49.9036C38.2496 46.3703 41.3496 43.5369 44.9496 41.4036C48.5496 39.2036 52.5163 38.1036 56.8496 38.1036C59.5829 38.1036 61.7496 38.7703 63.3496 40.1036C65.0163 41.3703 66.2163 43.0369 66.9496 45.1036C67.6829 47.1036 68.0496 49.1703 68.0496 51.3036C68.0496 51.9703 68.0163 52.6369 67.9496 53.3036C67.8829 53.9036 67.7829 54.5369 67.6496 55.2036C68.4496 54.8036 69.2496 54.4036 70.0496 54.0036C70.9163 53.6036 71.7829 53.2369 72.6496 52.9036L74.0496 52.3036C75.1829 49.5703 76.3829 46.9036 77.6496 44.3036C78.9163 41.6369 80.3496 39.1703 81.9496 36.9036C83.2829 35.0369 84.8829 33.3703 86.7496 31.9036C88.6829 30.4369 90.7829 29.7036 93.0496 29.7036C95.1163 29.7036 96.5829 30.1703 97.4496 31.1036C98.3163 31.9703 98.7496 33.0703 98.7496 34.4036C98.7496 36.2703 98.1163 38.0369 96.8496 39.7036C95.6496 41.3703 94.0829 42.9369 92.1496 44.4036C90.2163 45.8036 88.1163 47.1369 85.8496 48.4036C83.6496 49.6036 81.5163 50.6703 79.4496 51.6036C78.1163 55.6036 76.7163 59.6369 75.2496 63.7036C73.8496 67.7036 72.1163 71.5036 70.0496 75.1036C67.9829 78.6369 65.2496 81.7703 61.8496 84.5036C59.3163 86.5703 56.5496 88.1036 53.5496 89.1036C50.6163 90.1036 47.7829 90.6036 45.0496 90.6036C44.5829 90.6036 44.1163 90.5703 43.6496 90.5036C43.2496 90.5036 42.8496 90.4703 42.4496 90.4036C42.9829 93.0703 44.1163 95.3369 45.8496 97.2036C47.5829 99.1369 50.2163 100.104 53.7496 100.104C54.8163 100.104 55.8163 99.9369 56.7496 99.6036C57.6829 99.3369 58.7496 98.8036 59.9496 98.0036C59.9496 98.0036 59.9496 97.9703 59.9496 97.9036C60.0163 97.9036 60.0829 97.9036 60.1496 97.9036C60.3496 97.9036 60.4496 98.1036 60.4496 98.5036C60.4496 98.9703 60.0496 99.4369 59.2496 99.9036C58.5163 100.37 57.5829 100.737 56.4496 101.004C55.3163 101.337 54.2496 101.504 53.2496 101.504ZM80.1496 49.6036C82.7496 48.3369 85.3163 46.9369 87.8496 45.4036C90.3829 43.8036 92.4829 42.1036 94.1496 40.3036C95.8163 38.4369 96.6496 36.5036 96.6496 34.5036C96.6496 33.5703 96.4163 32.7703 95.9496 32.1036C95.5496 31.3703 94.7829 31.0036 93.6496 31.0036C92.3829 31.0036 91.1496 31.4369 89.9496 32.3036C88.8163 33.1036 87.8163 34.0703 86.9496 35.2036C86.0829 36.3369 85.3496 37.4369 84.7496 38.5036C83.8829 40.1703 83.0496 41.9703 82.2496 43.9036C81.5163 45.7703 80.8163 47.6703 80.1496 49.6036ZM38.7496 88.3036C38.6829 87.9703 38.6496 87.6369 38.6496 87.3036C38.6496 86.9703 38.6496 86.6703 38.6496 86.4036C38.6496 82.1369 39.8163 78.2036 42.1496 74.6036C44.4829 71.0036 47.6163 67.7036 51.5496 64.7036C55.5496 61.7036 59.9829 58.9703 64.8496 56.5036C65.2496 54.9703 65.4496 53.4036 65.4496 51.8036C65.4496 49.8703 65.1829 47.9703 64.6496 46.1036C64.1163 44.2369 63.1829 42.6703 61.8496 41.4036C60.5829 40.1369 58.8163 39.5036 56.5496 39.5036C53.0829 39.5036 49.8163 40.6036 46.7496 42.8036C43.7496 45.0036 41.1163 47.8703 38.8496 51.4036C36.5829 54.8703 34.7829 58.6369 33.4496 62.7036C32.1829 66.7036 31.5496 70.5036 31.5496 74.1036C31.5496 77.5036 32.0829 80.5036 33.1496 83.1036C34.2163 85.6369 36.0829 87.3703 38.7496 88.3036ZM42.2496 88.9036H42.6496C44.8496 88.9036 47.3496 88.2703 50.1496 87.0036C53.0163 85.7369 56.0496 83.4369 59.2496 80.1036C62.5829 76.6369 65.2496 72.6703 67.2496 68.2036C69.3163 63.6703 71.2829 59.0703 73.1496 54.4036L67.0496 57.6036C65.7829 61.6703 63.6163 65.6036 60.5496 69.4036C57.5496 73.2036 54.3163 76.3703 50.8496 78.9036C50.3829 79.2369 49.9496 79.4036 49.5496 79.4036C49.2163 79.4036 49.0496 79.3036 49.0496 79.1036C49.0496 78.9036 49.1163 78.7369 49.2496 78.6036C52.1829 76.4036 55.0829 73.6036 57.9496 70.2036C60.8163 66.8036 62.8829 63.1369 64.1496 59.2036C60.3496 61.4036 56.7829 63.9369 53.4496 66.8036C50.1163 69.6036 47.3829 72.6703 45.2496 76.0036C43.1829 79.2703 42.1496 82.7703 42.1496 86.5036C42.1496 86.9036 42.1496 87.3036 42.1496 87.7036C42.1496 88.1036 42.1829 88.5036 42.2496 88.9036ZM76.6285 85.5036C75.4952 85.4369 74.9285 84.7036 74.9285 83.3036C74.9285 82.1703 75.2618 80.7703 75.9285 79.1036C76.5952 77.3703 77.4285 75.6369 78.4285 73.9036C80.6952 70.1036 83.4618 66.0036 86.7285 61.6036C90.0618 57.1369 93.4952 52.9703 97.0285 49.1036C100.162 45.6369 103.562 42.5036 107.229 39.7036C110.895 36.9036 114.729 34.9369 118.729 33.8036C119.329 33.6036 120.029 33.4369 120.829 33.3036C121.629 33.1703 122.462 33.1036 123.329 33.1036C124.929 33.1036 126.295 33.3369 127.429 33.8036C127.962 34.0703 128.495 34.4369 129.029 34.9036C129.562 35.3036 129.929 35.9036 130.129 36.7036C129.395 36.1036 128.562 35.6703 127.629 35.4036C126.695 35.0703 125.562 34.9036 124.229 34.9036C121.629 34.9036 118.962 35.6703 116.229 37.2036C113.562 38.6703 110.995 40.4703 108.529 42.6036C106.129 44.7369 103.995 46.8703 102.129 49.0036C100.329 51.0703 98.9285 52.7036 97.9285 53.9036C94.9285 57.5036 92.3618 60.8369 90.2285 63.9036C88.0952 66.9703 86.3952 69.4703 85.1285 71.4036C86.6618 69.8703 88.3285 68.2369 90.1285 66.5036C91.9952 64.7703 93.9952 62.9703 96.1285 61.1036C97.5952 59.9036 99.2285 58.6036 101.029 57.2036C102.829 55.7369 104.729 54.4703 106.729 53.4036C108.729 52.3369 110.762 51.8036 112.829 51.8036C113.762 51.8036 114.429 52.0369 114.829 52.5036C115.229 52.9036 115.429 53.4036 115.429 54.0036C115.429 54.8036 115.129 55.5703 114.529 56.3036C114.062 55.7703 113.529 55.4369 112.929 55.3036C112.395 55.1036 111.762 55.0036 111.029 55.0036C109.295 55.0036 107.495 55.4703 105.629 56.4036C103.829 57.2703 102.529 58.0036 101.729 58.6036L100.729 59.4036C100.262 60.4703 99.6619 61.9369 98.9285 63.8036C98.1952 65.6703 97.4618 67.7036 96.7285 69.9036C96.0618 72.0369 95.4952 74.1036 95.0285 76.1036C94.5619 78.0369 94.3285 79.6369 94.3285 80.9036C94.3285 81.8369 94.4619 82.5036 94.7285 82.9036C94.9952 83.2369 95.3619 83.4036 95.8285 83.4036C96.8285 83.4036 97.9285 83.0036 99.1285 82.2036C100.395 81.4036 101.595 80.4703 102.729 79.4036C103.929 78.2703 104.962 77.2036 105.829 76.2036C106.762 75.2036 107.362 74.5369 107.629 74.2036C107.895 74.2036 108.029 74.4036 108.029 74.8036C108.029 75.4036 107.895 75.8703 107.629 76.2036C106.695 77.2036 105.529 78.4369 104.129 79.9036C102.729 81.3703 101.162 82.6703 99.4285 83.8036C97.7618 84.8703 95.9618 85.4036 94.0285 85.4036C92.4952 85.4036 91.4285 84.9036 90.8285 83.9036C90.2952 82.8369 90.0285 81.4703 90.0285 79.8036C90.0285 78.3369 90.3618 76.5703 91.0285 74.5036C91.7619 72.4369 92.5619 70.4036 93.4285 68.4036C94.3618 66.3369 95.1285 64.6703 95.7285 63.4036C92.0618 66.4703 88.7285 69.5703 85.7285 72.7036C82.7952 75.8369 80.4952 78.6703 78.8285 81.2036C78.3618 82.0036 77.9618 82.7369 77.6285 83.4036C77.2952 84.0703 77.0285 84.6369 76.8285 85.1036L76.6285 85.5036ZM132.523 47.7036C131.19 47.7036 130.523 47.1703 130.523 46.1036C130.523 45.7703 130.623 45.4036 130.823 45.0036C131.156 44.2036 131.723 43.5036 132.523 42.9036C133.39 42.2369 134.223 41.9036 135.023 41.9036C136.29 41.9036 136.923 42.4369 136.923 43.5036C136.923 44.5036 136.456 45.4369 135.523 46.3036C134.59 47.1703 133.59 47.6369 132.523 47.7036ZM110.823 85.5036C109.023 85.5036 107.756 85.0369 107.023 84.1036C106.223 83.1036 105.823 81.8703 105.823 80.4036C105.823 78.4703 106.423 76.4036 107.623 74.2036C108.756 71.9369 110.19 69.7036 111.923 67.5036C113.656 65.2369 115.423 63.1369 117.223 61.2036C119.023 59.2036 120.59 57.5703 121.923 56.3036C123.19 55.0369 124.49 54.1036 125.823 53.5036C127.156 52.9036 128.29 52.5036 129.223 52.3036C130.223 52.0369 130.723 51.9036 130.723 51.9036C129.256 53.5703 127.256 55.9369 124.723 59.0036C122.19 62.0703 119.69 65.3369 117.223 68.8036C117.023 69.0703 116.556 69.7369 115.823 70.8036C115.09 71.8703 114.256 73.1036 113.323 74.5036C112.456 75.9036 111.69 77.2703 111.023 78.6036C110.423 79.9369 110.123 81.0036 110.123 81.8036C110.123 83.0703 110.79 83.7036 112.123 83.7036C113.123 83.7036 114.19 83.3369 115.323 82.6036C116.523 81.8703 117.723 80.9703 118.923 79.9036C120.123 78.8369 121.19 77.8036 122.123 76.8036C123.123 75.7369 123.89 74.8703 124.423 74.2036C124.69 74.2036 124.823 74.4036 124.823 74.8036C124.823 75.4036 124.69 75.8703 124.423 76.2036C121.89 79.1369 119.59 81.4369 117.523 83.1036C115.523 84.7036 113.29 85.5036 110.823 85.5036ZM140.22 85.4036C138.82 85.4036 137.82 85.0369 137.22 84.3036C136.62 83.5036 136.32 82.5036 136.32 81.3036C136.32 79.5036 136.953 77.4703 138.22 75.2036C139.487 72.8703 141.12 70.4369 143.12 67.9036C145.187 65.3703 147.32 62.8703 149.52 60.4036C151.787 57.9369 153.92 55.6703 155.92 53.6036C154.92 53.6036 153.82 53.8703 152.62 54.4036C151.487 54.9369 150.32 55.5703 149.12 56.3036C147.32 57.5036 145.353 59.1036 143.22 61.1036C141.087 63.1036 138.953 65.2369 136.82 67.5036C134.687 69.7703 132.653 72.0036 130.72 74.2036C129.187 76.0036 127.953 77.5036 127.02 78.7036C126.153 79.9036 125.387 81.0036 124.72 82.0036C124.12 82.9369 123.453 84.0036 122.72 85.2036C121.653 85.2036 121.12 84.5703 121.12 83.3036C121.12 81.9703 121.553 80.3703 122.42 78.5036C123.22 76.6369 123.92 75.1703 124.52 74.1036C126.253 71.1703 128.22 68.1036 130.42 64.9036C132.687 61.6369 134.787 58.7703 136.72 56.3036C137.72 54.9703 138.787 54.0036 139.92 53.4036C141.053 52.7369 142.02 52.3369 142.82 52.2036C143.62 52.0036 144.02 51.9036 144.02 51.9036C143.62 52.5036 142.787 53.7703 141.52 55.7036C140.253 57.6369 138.787 59.9036 137.12 62.5036C135.453 65.1036 133.753 67.7369 132.02 70.4036C134.753 67.2703 137.687 64.2369 140.82 61.3036C143.953 58.3036 146.953 55.8703 149.82 54.0036C150.687 53.4036 151.587 52.9036 152.52 52.5036C153.453 52.1036 154.42 51.9036 155.42 51.9036C157.22 51.9036 158.12 52.6036 158.12 54.0036C158.12 55.0703 157.487 56.3369 156.22 57.8036C154.687 59.6036 153.02 61.6036 151.22 63.8036C149.42 66.0036 147.687 68.2369 146.02 70.5036C144.42 72.7703 143.087 74.8703 142.02 76.8036C141.02 78.7369 140.52 80.3036 140.52 81.5036C140.52 82.1703 140.687 82.6703 141.02 83.0036C141.42 83.2703 141.753 83.4036 142.02 83.4036C143.02 83.4036 144.12 83.0036 145.32 82.2036C146.587 81.4036 147.787 80.4703 148.92 79.4036C150.12 78.2703 151.153 77.2036 152.02 76.2036C152.953 75.2036 153.553 74.5369 153.82 74.2036C154.087 74.2036 154.22 74.4036 154.22 74.8036C154.22 75.4036 154.087 75.8703 153.82 76.2036C152.887 77.2036 151.653 78.4369 150.12 79.9036C148.587 81.3703 146.953 82.6703 145.22 83.8036C143.487 84.8703 141.82 85.4036 140.22 85.4036ZM122.114 109.504C120.648 109.504 119.314 109.304 118.114 108.904C117.581 108.637 117.048 108.27 116.514 107.804C115.914 107.337 115.514 106.737 115.314 106.004C116.048 106.604 116.881 107.037 117.814 107.304C118.748 107.637 119.881 107.77 121.214 107.704C124.748 107.704 128.081 106.804 131.214 105.004C134.281 103.27 137.181 100.937 139.914 98.0036C142.648 95.0703 145.214 91.8369 147.614 88.3036C150.014 84.7703 152.281 81.2369 154.414 77.7036C156.548 74.1036 158.548 70.8369 160.414 67.9036C161.681 65.9036 162.981 63.7703 164.314 61.5036C165.714 59.2369 167.214 56.9703 168.814 54.7036H163.214L164.314 53.3036H169.814C172.948 48.9036 176.381 44.8369 180.114 41.1036C183.914 37.3703 188.148 34.8036 192.814 33.4036C193.948 33.0036 195.481 32.8036 197.414 32.8036C198.214 32.8036 199.014 32.8703 199.814 33.0036C200.614 33.0703 201.348 33.2369 202.014 33.5036C202.614 33.7703 203.181 34.1369 203.714 34.6036C204.248 35.0703 204.648 35.6703 204.914 36.4036C203.514 35.2703 201.514 34.7036 198.914 34.7036C195.448 34.7036 192.248 35.6703 189.314 37.6036C186.448 39.5369 183.848 41.9369 181.514 44.8036C179.248 47.6036 177.181 50.4369 175.314 53.3036H183.014L181.914 54.7036H174.414C172.948 56.9036 171.481 59.2036 170.014 61.6036C168.614 64.0036 166.881 66.8369 164.814 70.1036C163.414 72.3036 161.681 74.9036 159.614 77.9036C157.614 80.8369 155.381 83.9036 152.914 87.1036C150.448 90.3036 147.814 93.3703 145.014 96.3036C142.214 99.2369 139.281 101.804 136.214 104.004C133.148 106.27 130.014 107.87 126.814 108.804C125.548 109.27 123.981 109.504 122.114 109.504ZM174.755 85.4036C172.288 85.4036 171.055 84.0036 171.055 81.2036C171.055 79.6036 171.522 77.7036 172.455 75.5036C173.388 73.2369 174.788 70.8703 176.655 68.4036C177.988 66.7369 179.622 64.9703 181.555 63.1036C183.488 61.1703 185.588 59.3369 187.855 57.6036C190.188 55.8703 192.555 54.4703 194.955 53.4036C197.355 52.2703 199.688 51.7036 201.955 51.7036C202.955 51.7036 203.655 51.8703 204.055 52.2036C204.455 52.4703 204.722 52.7703 204.855 53.1036C204.988 53.3703 204.988 53.5703 204.855 53.7036C204.788 53.8369 204.688 53.8703 204.555 53.8036C204.288 53.6703 203.755 53.6036 202.955 53.6036C200.555 53.6036 197.688 54.7703 194.355 57.1036C191.088 59.3703 187.855 62.3369 184.655 66.0036C182.388 68.5369 180.522 71.0369 179.055 73.5036C177.588 75.9036 176.622 77.9036 176.155 79.5036C176.022 80.0369 175.955 80.5036 175.955 80.9036C175.955 81.8369 176.322 82.3036 177.055 82.3036C177.522 82.3036 178.155 82.1036 178.955 81.7036C179.755 81.2369 180.788 80.4703 182.055 79.4036C184.055 77.6703 186.022 75.6369 187.955 73.3036C189.955 70.9703 191.922 68.6036 193.855 66.2036C195.788 63.7369 197.655 61.4703 199.455 59.4036C201.322 57.3369 203.088 55.7703 204.755 54.7036C206.888 53.3036 208.355 52.5036 209.155 52.3036C210.022 52.1036 210.722 51.9703 211.255 51.9036C210.922 52.3036 210.188 53.2369 209.055 54.7036C207.922 56.1703 206.722 57.7369 205.455 59.4036C204.188 61.0036 203.155 62.3369 202.355 63.4036C201.155 65.1369 199.855 67.0036 198.455 69.0036C197.122 71.0036 195.888 72.9036 194.755 74.7036C193.688 76.4369 192.955 77.8703 192.555 79.0036C192.222 80.1369 192.055 80.9703 192.055 81.5036C192.055 82.5703 192.488 83.1036 193.355 83.1036C193.955 83.1036 194.655 82.8703 195.455 82.4036C196.322 81.8703 197.188 81.2703 198.055 80.6036C199.188 79.6703 200.255 78.7036 201.255 77.7036C202.255 76.6369 203.288 75.4703 204.355 74.2036C204.622 74.2036 204.755 74.4036 204.755 74.8036C204.755 75.4036 204.622 75.8703 204.355 76.2036C203.488 77.2036 202.422 78.3036 201.155 79.5036C199.955 80.7036 198.755 81.7703 197.555 82.7036C196.688 83.4369 195.688 84.0703 194.555 84.6036C193.422 85.1369 192.322 85.4036 191.255 85.4036C189.722 85.4036 188.655 85.0369 188.055 84.3036C187.455 83.5703 187.155 82.6369 187.155 81.5036C187.155 80.1703 187.455 78.7369 188.055 77.2036C188.655 75.6036 189.322 74.1036 190.055 72.7036C189.188 73.7703 188.088 75.0703 186.755 76.6036C185.422 78.0703 184.222 79.3036 183.155 80.3036C181.688 81.6369 180.288 82.8369 178.955 83.9036C177.622 84.9036 176.222 85.4036 174.755 85.4036ZM228.91 47.7036C227.576 47.7036 226.91 47.1703 226.91 46.1036C226.91 45.7703 227.01 45.4036 227.21 45.0036C227.543 44.2036 228.11 43.5036 228.91 42.9036C229.776 42.2369 230.61 41.9036 231.41 41.9036C232.676 41.9036 233.31 42.4369 233.31 43.5036C233.31 44.5036 232.843 45.4369 231.91 46.3036C230.976 47.1703 229.976 47.6369 228.91 47.7036ZM207.21 85.5036C205.41 85.5036 204.143 85.0369 203.41 84.1036C202.61 83.1036 202.21 81.8703 202.21 80.4036C202.21 78.4703 202.81 76.4036 204.01 74.2036C205.143 71.9369 206.576 69.7036 208.31 67.5036C210.043 65.2369 211.81 63.1369 213.61 61.2036C215.41 59.2036 216.976 57.5703 218.31 56.3036C219.576 55.0369 220.876 54.1036 222.21 53.5036C223.543 52.9036 224.676 52.5036 225.61 52.3036C226.61 52.0369 227.11 51.9036 227.11 51.9036C225.643 53.5703 223.643 55.9369 221.11 59.0036C218.576 62.0703 216.076 65.3369 213.61 68.8036C213.41 69.0703 212.943 69.7369 212.21 70.8036C211.476 71.8703 210.643 73.1036 209.71 74.5036C208.843 75.9036 208.076 77.2703 207.41 78.6036C206.81 79.9369 206.51 81.0036 206.51 81.8036C206.51 83.0703 207.176 83.7036 208.51 83.7036C209.51 83.7036 210.576 83.3369 211.71 82.6036C212.91 81.8703 214.11 80.9703 215.31 79.9036C216.51 78.8369 217.576 77.8036 218.51 76.8036C219.51 75.7369 220.276 74.8703 220.81 74.2036C221.076 74.2036 221.21 74.4036 221.21 74.8036C221.21 75.4036 221.076 75.8703 220.81 76.2036C218.276 79.1369 215.976 81.4369 213.91 83.1036C211.91 84.7036 209.676 85.5036 207.21 85.5036ZM232.807 85.5036C231.14 85.5036 229.94 85.0703 229.207 84.2036C228.54 83.3369 228.207 82.2703 228.207 81.0036C228.207 80.2036 228.307 79.4036 228.507 78.6036C228.907 76.6036 229.907 74.5036 231.507 72.3036C233.107 70.1036 235.007 67.9036 237.207 65.7036C239.407 63.5036 241.64 61.5036 243.907 59.7036C246.24 57.9036 248.307 56.4036 250.107 55.2036C249.307 55.3369 248.273 55.4036 247.007 55.4036C245.54 55.4036 244.007 55.3369 242.407 55.2036C240.807 55.0036 239.707 54.7036 239.107 54.3036C238.84 54.7703 238.173 55.6703 237.107 57.0036C236.107 58.2703 234.84 59.8036 233.307 61.6036C231.84 63.4036 230.307 65.2369 228.707 67.1036C227.107 68.9703 225.607 70.7369 224.207 72.4036C222.807 74.0036 221.673 75.2703 220.807 76.2036C219.94 77.2036 218.773 78.4036 217.307 79.8036C215.773 81.1369 214.273 82.3369 212.807 83.4036C211.273 84.4703 210.007 85.0036 209.007 85.0036C208.54 85.0036 208.273 84.9036 208.207 84.7036C208.073 84.5036 208.007 84.3703 208.007 84.3036C209.073 84.3036 210.673 83.5703 212.807 82.1036C214.873 80.5703 217.54 77.9369 220.807 74.2036C224.74 69.6703 228.44 64.8036 231.907 59.6036C235.44 54.3369 238.607 48.8703 241.407 43.2036H241.507C242.373 43.2036 242.807 44.0369 242.807 45.7036C242.807 47.2369 242.273 49.0369 241.207 51.1036C240.94 51.5703 240.54 52.2036 240.007 53.0036C241.34 53.2703 242.673 53.4703 244.007 53.6036C245.34 53.6703 246.573 53.7036 247.707 53.7036C248.64 53.7036 249.507 53.6703 250.307 53.6036C251.107 53.5369 251.74 53.4369 252.207 53.3036C252.807 53.3036 253.107 53.4369 253.107 53.7036C253.173 53.9036 253.14 54.0703 253.007 54.2036C252.74 54.4703 252.173 55.0703 251.307 56.0036C250.507 56.9369 249.573 57.9703 248.507 59.1036C247.507 60.1703 246.573 61.2036 245.707 62.2036C244.84 63.1369 244.207 63.8369 243.807 64.3036C241.74 66.7703 239.673 69.4703 237.607 72.4036C235.607 75.3369 234.207 77.9703 233.407 80.3036C233.14 80.9036 233.007 81.4703 233.007 82.0036C233.007 82.9369 233.44 83.4036 234.307 83.4036C235.24 83.4036 236.407 82.8703 237.807 81.8036C239.207 80.6703 240.607 79.3703 242.007 77.9036C243.473 76.4369 244.64 75.2036 245.507 74.2036C245.773 74.2036 245.907 74.4036 245.907 74.8036C245.907 75.4036 245.773 75.8703 245.507 76.2036C242.44 79.8036 239.94 82.2703 238.007 83.6036C236.14 84.8703 234.407 85.5036 232.807 85.5036ZM232.914 109.904C230.98 109.904 229.647 109.737 228.914 109.404C228.114 109.137 227.714 108.904 227.714 108.704C227.714 108.437 227.947 108.304 228.414 108.304C228.747 108.304 229.08 108.304 229.414 108.304C229.747 108.37 230.08 108.404 230.414 108.404C232.814 108.404 235.214 107.67 237.614 106.204C240.014 104.737 242.347 102.77 244.614 100.304C246.88 97.9036 249.047 95.2369 251.114 92.3036C253.18 89.3703 255.047 86.4703 256.714 83.6036L264.414 70.3036C263.547 71.3036 262.414 72.6369 261.014 74.3036C259.68 75.9703 258.214 77.6369 256.614 79.3036C255.014 80.9703 253.447 82.4036 251.914 83.6036C250.38 84.7369 248.947 85.3036 247.614 85.3036C246.014 85.3036 244.88 84.9369 244.214 84.2036C243.547 83.4703 243.214 82.5369 243.214 81.4036C243.214 80.2703 243.48 79.0369 244.014 77.7036C244.48 76.3703 245.08 75.0369 245.814 73.7036C247.08 71.5703 248.514 69.4369 250.114 67.3036C251.78 65.1036 253.447 63.0703 255.114 61.2036C256.847 59.2703 258.38 57.6369 259.714 56.3036C260.98 55.0369 262.28 54.1036 263.614 53.5036C264.947 52.9036 266.08 52.5036 267.014 52.3036C268.014 52.0369 268.514 51.9036 268.514 51.9036C267.047 53.5703 265.047 55.9369 262.514 59.0036C260.047 62.0703 257.547 65.3369 255.014 68.8036C254.747 69.1369 254.247 69.8369 253.514 70.9036C252.847 71.9703 252.114 73.1703 251.314 74.5036C250.514 75.7703 249.814 77.0369 249.214 78.3036C248.68 79.5036 248.414 80.4703 248.414 81.2036C248.414 81.9369 248.814 82.2703 249.614 82.2036C250.48 82.1369 251.614 81.5036 253.014 80.3036C254.414 79.1036 255.914 77.6369 257.514 75.9036C259.114 74.1703 260.614 72.4703 262.014 70.8036C263.48 69.0703 264.68 67.6369 265.614 66.5036C266.547 65.4369 267.647 64.1036 268.914 62.5036C270.18 60.9036 271.547 59.3036 273.014 57.7036C274.48 56.0369 276.014 54.6703 277.614 53.6036C279.28 52.4703 280.947 51.9036 282.614 51.9036C283.214 51.9036 283.58 51.9703 283.714 52.1036C281.314 53.2369 279.08 55.0703 277.014 57.6036C274.947 60.1369 272.98 63.1036 271.114 66.5036C269.247 69.9036 267.347 73.5036 265.414 77.3036C263.547 81.0369 261.547 84.7036 259.414 88.3036C257.28 91.9703 254.947 95.2703 252.414 98.2036C249.414 101.67 246.214 104.47 242.814 106.604C239.347 108.804 236.047 109.904 232.914 109.904Z" fill="black"/>
<path d="M18.7927 28.1098L14.1128 19.5529L9.43287 28.1098L0.875977 32.7897L9.43287 37.4697L14.1128 46.0266L18.7927 37.4697L27.3496 32.7897L18.7927 28.1098Z" fill="black"/>
<path d="M304.343 80.6237L299.663 72.0668L294.983 80.6237L286.426 85.3036L294.983 89.9835L299.663 98.5404L304.343 89.9835L312.9 85.3036L304.343 80.6237Z" fill="black"/>
</svg>
