<svg width="244" height="68" viewBox="0 0 244 68" fill="none" xmlns="http://www.w3.org/2000/svg">
<path d="M90.8274 23.8173C89.8431 23.8173 88.8587 24.0153 88.0722 24.2132C84.7233 24.9996 81.7701 26.9684 79.4108 28.9371C77.442 30.5101 75.666 31.8903 73.6972 33.0726L72.3222 24.0153C72.1243 22.4371 71.9264 20.8642 71.5306 19.0934C71.1399 17.3226 70.7441 15.7444 69.9576 14.1715C68.5774 11.0205 66.416 8.06734 63.8535 5.90068C58.7337 1.36943 51.4472 -0.599322 45.1503 0.780886C48.4941 0.58297 51.6451 1.17672 54.7962 2.16109C57.7493 3.33818 60.5045 5.11422 62.6712 7.28089C66.0201 10.4267 68.1868 14.7601 68.7753 19.6819C68.9733 21.2601 69.1712 22.833 69.3691 24.6038L70.3535 34.4528C70.3535 35.0413 71.1399 40.9476 70.942 40.5517V41.1455C70.942 41.3434 70.942 41.3434 70.942 41.5413C70.942 41.9319 70.7441 42.3278 70.5462 42.7184C69.9576 43.5101 68.7753 44.2965 67.4003 44.8851C66.0201 45.4788 64.442 45.8694 63.067 46.0673C59.916 46.6559 56.7649 46.8538 53.6139 46.8538C47.3118 46.8538 40.6191 46.0673 34.7128 44.2965C33.3326 43.9007 31.7597 43.3121 30.5774 42.5257C29.9889 42.1298 29.593 41.734 29.3951 41.3434C29.1972 41.1455 29.1972 40.9476 29.1972 40.9476L29.0045 39.7653L27.6243 29.9215C27.4264 28.3486 27.0358 26.5726 27.0358 24.9996C27.0358 24.2132 26.8378 23.4215 26.8378 22.6351V21.4528L27.0358 20.2757C27.4264 17.1246 28.2128 14.1715 29.9889 11.4111C33.1399 5.90068 38.8483 1.96318 45.343 0.780886C38.6503 1.17672 32.3483 4.9163 28.4108 10.4267C26.442 13.1871 25.067 16.5309 24.6712 19.8798C24.2753 20.6663 24.2753 21.6507 24.2753 22.4371C24.2753 23.2288 24.2753 24.2132 24.2753 24.9996C24.2753 26.7705 24.6712 28.3486 24.6712 29.9215L24.8691 32.2861C20.5358 32.6767 16.0097 33.4684 11.8743 35.2392C9.50971 36.2236 7.34305 37.5986 5.17638 39.1767C3.20763 40.9476 1.63471 43.3121 0.650339 45.8694C0.452422 46.2653 0.65034 46.6559 0.848256 47.0517C1.23888 47.8382 2.22326 48.0361 3.00971 47.6403C5.3743 46.2653 8.12951 46.0673 11.0826 46.4632C13.843 47.0517 16.5983 48.234 18.9628 50.0048C21.5201 51.7757 23.6868 53.7444 26.2441 55.9111C27.4264 56.8955 28.8066 57.8798 30.1816 58.8642L32.1555 60.2444L34.317 61.4267C45.7389 67.9215 59.916 69.3017 72.5149 65.3642C78.817 63.3955 84.7233 60.2444 89.6451 55.7132C94.3743 51.1871 98.1139 45.083 98.9003 38.3903C99.2962 35.0413 98.9003 31.6923 97.7181 28.3486C96.3431 25.7861 93.7806 24.0153 90.8274 23.8173ZM95.5566 38.1923C94.7649 44.0986 91.4212 49.4163 87.0878 53.3538C73.6972 65.3642 52.4316 67.1351 36.2858 58.2757C33.5305 56.8955 31.1712 55.1246 28.8066 53.1559C26.442 51.1871 23.8847 49.0205 21.1243 47.2496C18.3691 45.4788 15.218 43.9007 11.8743 43.3121C9.90555 42.9163 7.73888 42.9163 5.57221 43.5101C6.16076 42.7184 6.55659 42.1298 7.34305 41.5413C8.92117 39.9632 10.8899 38.7809 13.0514 37.7965C16.7962 36.0257 20.9316 35.0413 25.2597 34.6455L25.8535 39.7653L26.0514 40.9476C26.2441 41.5413 26.442 42.3278 26.6399 42.7184C27.2285 43.7028 28.0201 44.4944 28.8066 45.083C30.3795 46.2653 31.9576 46.8538 33.7285 47.4476C37.0774 48.6246 40.4212 49.2184 43.7701 49.609C47.1191 50.0048 50.4628 50.4007 53.8118 50.4007C57.1608 50.4007 60.5045 50.2028 64.0514 49.609C65.8222 49.2184 67.4003 48.8226 69.1712 48.234C70.7441 47.4476 72.7128 46.6559 73.8951 44.6871C74.4889 43.7028 75.0774 42.5257 74.8795 41.3434V39.9632C74.8795 39.5673 74.093 35.0413 74.291 35.2392C79.8014 32.4788 83.7389 27.7548 89.0566 26.7705C89.8431 26.5726 90.4368 26.5726 91.0253 26.5726C92.9941 26.7705 94.5722 27.9528 95.1608 29.7236C95.7493 32.2861 95.9472 35.4371 95.5566 38.1923Z" fill="black"/>
<path d="M134.332 52.4706H132.54L124.144 28.679H123.936L119.936 52.4706H117.332L122.332 23.2623H124.54L133.332 48.2623H133.54L142.332 23.2623H144.54L149.54 52.4706H146.936L142.936 28.679H142.748L134.332 52.4706Z" fill="black"/>
<path d="M170.86 26.679H170.651L163.86 41.2623H177.651L170.86 26.679ZM185.255 52.4706H182.651L178.651 43.679H162.86L158.86 52.4706H156.255L169.651 23.2623H171.86L185.255 52.4706Z" fill="black"/>
<path d="M201.784 23.2623C203.211 23.2623 204.518 23.4914 205.7 23.9498C206.893 24.4081 207.909 25.0435 208.742 25.8456C209.586 26.6373 210.242 27.5852 210.7 28.679C211.159 29.7623 211.388 30.9602 211.388 32.2623C211.388 33.1529 211.289 33.9498 211.096 34.6581C210.914 35.3665 210.664 36.0071 210.346 36.5748C210.023 37.1477 209.664 37.6477 209.263 38.0748C208.856 38.5071 208.455 38.8821 208.054 39.1998C207.096 39.9394 206.002 40.4915 204.784 40.8665V41.0748L212.971 52.4706H209.971L201.971 41.2623H195.784V52.4706H193.388V23.2623H201.784ZM201.784 38.8665C204.101 38.8665 205.877 38.2727 207.117 37.0748C208.351 35.8665 208.971 34.2623 208.971 32.2623C208.971 30.2623 208.351 28.6685 207.117 27.4706C205.877 26.2779 204.101 25.679 201.784 25.679H195.784V38.8665H201.784Z" fill="black"/>
<path d="M232.504 52.4706H230.108V40.679L218.691 23.2623H221.691L231.296 38.2623L240.9 23.2623H243.9L232.504 40.679V52.4706Z" fill="black"/>
</svg>
