<svg width="776" height="453" viewBox="0 0 776 453" fill="none" xmlns="http://www.w3.org/2000/svg">
<path fill-rule="evenodd" clip-rule="evenodd" d="M767.807 229.83C768.835 229.3 771.57 227.982 775.264 227.982L775.264 257.982C775.268 259.832 775.264 261.949 775.264 263.834C773.457 265.864 771.387 268.217 769.084 270.834C764.013 276.598 757.812 283.646 750.814 291.346C730.08 314.164 701.083 344.15 666.06 372.037C596.659 427.301 499.77 477.239 395.261 440.118C340.433 420.644 304.504 389.399 284.134 353.591C270.224 329.138 263.849 303.039 263.373 277.962C261.655 277.319 259.926 276.659 258.187 275.981C149.854 233.774 85.3762 169.595 48.0065 113.786C29.3654 85.9475 17.5102 60.2576 10.2852 40.503C6.67352 30.6282 4.19843 22.1808 2.60773 15.6261C1.14252 9.58859 0.138489 4.00623 0.138489 0.390228H30.1385C30.1385 0.332428 30.1459 0.386688 30.1691 0.557678C30.2622 1.24365 30.6105 3.80823 31.7615 8.55103C33.0739 13.9589 35.2158 21.3286 38.4598 30.1984C44.9461 47.9329 55.7568 71.4419 72.9341 97.0947C106.837 147.726 165.703 206.972 265.837 246.752C265.978 245.961 266.126 245.172 266.279 244.385C272.921 210.251 290.632 179.617 315.818 161.828C341.772 143.496 374.848 139.579 407.766 158.532C449.527 182.577 463.562 232.226 434.586 266.872C410.487 295.685 362.358 306.839 293.998 287.963C295.716 305.005 300.874 322.344 310.211 338.757C326.568 367.512 356.344 394.459 405.302 411.848C494.647 443.583 580.247 402.02 647.373 348.569C680.614 322.099 708.389 293.425 728.612 271.171C735.464 263.631 741.308 256.987 746.298 251.315C748.741 248.538 750.979 245.994 753.03 243.692C756.031 240.322 758.763 237.324 760.992 235.123C762.074 234.053 763.385 232.824 764.771 231.768C765.457 231.246 766.502 230.502 767.807 229.83ZM294.589 256.929C362.152 277.579 398.06 263.782 411.573 247.625C425.831 230.578 422.35 201.547 392.797 184.531C370.462 171.671 349.964 174.439 333.126 186.332C315.519 198.768 301.217 221.9 295.726 250.115C295.289 252.363 294.909 254.636 294.589 256.929Z" fill="#ECD9C1"/>
</svg>
