<svg width="60" height="20" viewBox="0 0 60 20" fill="none" xmlns="http://www.w3.org/2000/svg">
<path d="M59.5375 10.4077H0.460549C0.233626 10.4077 0.050293 10.2244 0.050293 9.99745C0.050293 9.77052 0.233626 9.58719 0.460549 9.58719H58.5464L56.0567 7.09745C55.8964 6.93719 55.8964 6.67693 56.0567 6.51668C56.217 6.35642 56.4772 6.35642 56.6375 6.51668L59.8285 9.7077C59.9464 9.82565 59.9811 10.0013 59.917 10.1551C59.8529 10.3077 59.7029 10.4077 59.5375 10.4077Z" fill="white"/>
<path d="M56.3426 13.6026C56.2374 13.6026 56.1323 13.5628 56.0528 13.4821C55.8926 13.3218 55.8926 13.0616 56.0528 12.9013L59.2477 9.70643C59.4079 9.54618 59.6682 9.54618 59.8285 9.70643C59.9887 9.86669 59.9887 10.1269 59.8285 10.2872L56.6336 13.4821C56.5528 13.5628 56.4477 13.6026 56.3426 13.6026Z" fill="white"/>
</svg>
